  0
SECTION
  2
HEADER
  9
$ACADVER
  1
AC1018
  9
$ACADMAINTVER
 70
     0
  9
$DWGCODEPAGE
  3
ANSI_1252
  9
$INSBASE
 10
0.0
 20
0.0
 30
0.0
  9
$EXTMIN
 10
1.000000000000000E+20
 20
1.000000000000000E+20
 30
1.000000000000000E+20
  9
$EXTMAX
 10
-1.000000000000000E+20
 20
-1.000000000000000E+20
 30
-1.000000000000000E+20
  9
$LIMMIN
 10
0.0
 20
0.0
  9
$LIMMAX
 10
12.0
 20
9.0
  9
$ORTHOMODE
 70
     0
  9
$REGENMODE
 70
     1
  9
$FILLMODE
 70
     1
  9
$QTEXTMODE
 70
     0
  9
$MIRRTEXT
 70
     1
  9
$LTSCALE
 40
1.0
  9
$ATTMODE
 70
     1
  9
$TEXTSIZE
 40
0.2
  9
$TRACEWID
 40
0.05
  9
$TEXTSTYLE
  7
Standard
  9
$CLAYER
  8
0
  9
$CELTYPE
  6
ByLayer
  9
$CECOLOR
 62
   256
  9
$CELTSCALE
 40
1.0
  9
$DISPSILH
 70
     0
  9
$DIMSCALE
 40
1.0
  9
$DIMASZ
 40
0.18
  9
$DIMEXO
 40
0.0625
  9
$DIMDLI
 40
0.38
  9
$DIMRND
 40
0.0
  9
$DIMDLE
 40
0.0
  9
$DIMEXE
 40
0.18
  9
$DIMTP
 40
0.0
  9
$DIMTM
 40
0.0
  9
$DIMTXT
 40
0.18
  9
$DIMCEN
 40
0.09
  9
$DIMTSZ
 40
0.0
  9
$DIMTOL
 70
     0
  9
$DIMLIM
 70
     0
  9
$DIMTIH
 70
     1
  9
$DIMTOH
 70
     1
  9
$DIMSE1
 70
     0
  9
$DIMSE2
 70
     0
  9
$DIMTAD
 70
     0
  9
$DIMZIN
 70
     0
  9
$DIMBLK
  1

  9
$DIMASO
 70
     1
  9
$DIMSHO
 70
     1
  9
$DIMPOST
  1

  9
$DIMAPOST
  1

  9
$DIMALT
 70
     0
  9
$DIMALTD
 70
     2
  9
$DIMALTF
 40
25.4
  9
$DIMLFAC
 40
1.0
  9
$DIMTOFL
 70
     0
  9
$DIMTVP
 40
0.0
  9
$DIMTIX
 70
     0
  9
$DIMSOXD
 70
     0
  9
$DIMSAH
 70
     0
  9
$DIMBLK1
  1

  9
$DIMBLK2
  1

  9
$DIMSTYLE
  2
Standard
  9
$DIMCLRD
 70
     0
  9
$DIMCLRE
 70
     0
  9
$DIMCLRT
 70
     0
  9
$DIMTFAC
 40
1.0
  9
$DIMGAP
 40
0.09
  9
$DIMJUST
 70
     0
  9
$DIMSD1
 70
     0
  9
$DIMSD2
 70
     0
  9
$DIMTOLJ
 70
     1
  9
$DIMTZIN
 70
     0
  9
$DIMALTZ
 70
     0
  9
$DIMALTTZ
 70
     0
  9
$DIMUPT
 70
     0
  9
$DIMDEC
 70
     4
  9
$DIMTDEC
 70
     4
  9
$DIMALTU
 70
     2
  9
$DIMALTTD
 70
     2
  9
$DIMTXSTY
  7
Standard
  9
$DIMAUNIT
 70
     0
  9
$DIMADEC
 70
     0
  9
$DIMALTRND
 40
0.0
  9
$DIMAZIN
 70
     0
  9
$DIMDSEP
 70
    46
  9
$DIMATFIT
 70
     3
  9
$DIMFRAC
 70
     0
  9
$DIMLDRBLK
  1

  9
$DIMLUNIT
 70
     2
  9
$DIMLWD
 70
    -2
  9
$DIMLWE
 70
    -2
  9
$DIMTMOVE
 70
     0
  9
$LUNITS
 70
     2
  9
$LUPREC
 70
     4
  9
$SKETCHINC
 40
0.1
  9
$FILLETRAD
 40
0.5
  9
$AUNITS
 70
     0
  9
$AUPREC
 70
     0
  9
$MENU
  1
.
  9
$ELEVATION
 40
0.0
  9
$PELEVATION
 40
0.0
  9
$THICKNESS
 40
0.0
  9
$LIMCHECK
 70
     0
  9
$CHAMFERA
 40
0.5
  9
$CHAMFERB
 40
0.5
  9
$CHAMFERC
 40
1.0
  9
$CHAMFERD
 40
0.0
  9
$SKPOLY
 70
     0
  9
$TDCREATE
 40
2457882.857631898
  9
$TDUCREATE
 40
2457883.024298565
  9
$TDUPDATE
 40
2457882.85763191
  9
$TDUUPDATE
 40
2457883.024298576
  9
$TDINDWG
 40
0.0000000116
  9
$TDUSRTIMER
 40
0.0000000116
  9
$USRTIMER
 70
     1
  9
$ANGBASE
 50
0.0
  9
$ANGDIR
 70
     0
  9
$PDMODE
 70
     0
  9
$PDSIZE
 40
0.0
  9
$PLINEWID
 40
0.0
  9
$SPLFRAME
 70
     0
  9
$SPLINETYPE
 70
     6
  9
$SPLINESEGS
 70
     8
  9
$HANDSEED
  5
F2
  9
$SURFTAB1
 70
     6
  9
$SURFTAB2
 70
     6
  9
$SURFTYPE
 70
     6
  9
$SURFU
 70
     6
  9
$SURFV
 70
     6
  9
$UCSBASE
  2

  9
$UCSNAME
  2

  9
$UCSORG
 10
0.0
 20
0.0
 30
0.0
  9
$UCSXDIR
 10
1.0
 20
0.0
 30
0.0
  9
$UCSYDIR
 10
0.0
 20
1.0
 30
0.0
  9
$UCSORTHOREF
  2

  9
$UCSORTHOVIEW
 70
     0
  9
$UCSORGTOP
 10
0.0
 20
0.0
 30
0.0
  9
$UCSORGBOTTOM
 10
0.0
 20
0.0
 30
0.0
  9
$UCSORGLEFT
 10
0.0
 20
0.0
 30
0.0
  9
$UCSORGRIGHT
 10
0.0
 20
0.0
 30
0.0
  9
$UCSORGFRONT
 10
0.0
 20
0.0
 30
0.0
  9
$UCSORGBACK
 10
0.0
 20
0.0
 30
0.0
  9
$PUCSBASE
  2

  9
$PUCSNAME
  2

  9
$PUCSORG
 10
0.0
 20
0.0
 30
0.0
  9
$PUCSXDIR
 10
1.0
 20
0.0
 30
0.0
  9
$PUCSYDIR
 10
0.0
 20
1.0
 30
0.0
  9
$PUCSORTHOREF
  2

  9
$PUCSORTHOVIEW
 70
     0
  9
$PUCSORGTOP
 10
0.0
 20
0.0
 30
0.0
  9
$PUCSORGBOTTOM
 10
0.0
 20
0.0
 30
0.0
  9
$PUCSORGLEFT
 10
0.0
 20
0.0
 30
0.0
  9
$PUCSORGRIGHT
 10
0.0
 20
0.0
 30
0.0
  9
$PUCSORGFRONT
 10
0.0
 20
0.0
 30
0.0
  9
$PUCSORGBACK
 10
0.0
 20
0.0
 30
0.0
  9
$USERI1
 70
     0
  9
$USERI2
 70
     0
  9
$USERI3
 70
     0
  9
$USERI4
 70
     0
  9
$USERI5
 70
     0
  9
$USERR1
 40
0.0
  9
$USERR2
 40
0.0
  9
$USERR3
 40
0.0
  9
$USERR4
 40
0.0
  9
$USERR5
 40
0.0
  9
$WORLDVIEW
 70
     1
  9
$SHADEDGE
 70
     3
  9
$SHADEDIF
 70
    70
  9
$TILEMODE
 70
     1
  9
$MAXACTVP
 70
    64
  9
$PINSBASE
 10
0.0
 20
0.0
 30
0.0
  9
$PLIMCHECK
 70
     0
  9
$PEXTMIN
 10
1.000000000000000E+20
 20
1.000000000000000E+20
 30
1.000000000000000E+20
  9
$PEXTMAX
 10
-1.000000000000000E+20
 20
-1.000000000000000E+20
 30
-1.000000000000000E+20
  9
$PLIMMIN
 10
0.0
 20
0.0
  9
$PLIMMAX
 10
12.0
 20
9.0
  9
$UNITMODE
 70
     0
  9
$VISRETAIN
 70
     1
  9
$PLINEGEN
 70
     0
  9
$PSLTSCALE
 70
     1
  9
$TREEDEPTH
 70
  3020
  9
$CMLSTYLE
  2
Standard
  9
$CMLJUST
 70
     0
  9
$CMLSCALE
 40
1.0
  9
$PROXYGRAPHICS
 70
     1
  9
$MEASUREMENT
 70
     0
  9
$CELWEIGHT
370
    -1
  9
$ENDCAPS
280
     0
  9
$JOINSTYLE
280
     0
  9
$LWDISPLAY
290
     1
  9
$INSUNITS
 70
     1
  9
$HYPERLINKBASE
  1

  9
$STYLESHEET
  1

  9
$XEDIT
290
     1
  9
$CEPSNTYPE
380
     0
  9
$PSTYLEMODE
290
     1
  9
$FINGERPRINTGUID
  2
{DA07D9FC-5199-4354-A4B5-AC2D0A81563C}
  9
$VERSIONGUID
  2
{FAEB1C32-E019-11D5-929B-00C0DF256EC4}
  9
$EXTNAMES
290
     1
  9
$PSVPSCALE
 40
0.0
  9
$OLESTARTUP
290
     0
  9
$SORTENTS
280
   127
  9
$INDEXCTL
280
     0
  9
$HIDETEXT
280
     1
  9
$XCLIPFRAME
290
     0
  9
$HALOGAP
280
     0
  9
$OBSCOLOR
 70
   257
  9
$OBSLTYPE
280
     0
  9
$INTERSECTIONDISPLAY
280
     0
  9
$INTERSECTIONCOLOR
 70
   257
  9
$DIMASSOC
280
     2
  9
$PROJECTNAME
  1

  0
ENDSEC
  0
SECTION
  2
CLASSES
  0
CLASS
  1
ACDBDICTIONARYWDFLT
  2
AcDbDictionaryWithDefault
  3
ObjectDBX Classes
 90
        0
 91
        3
280
     0
281
     0
  0
CLASS
  1
VISUALSTYLE
  2
AcDbVisualStyle
  3
ObjectDBX Classes
 90
     4095
 91
        3
280
     0
281
     0
  0
ENDSEC
  0
SECTION
  2
TABLES
  0
TABLE
  2
VPORT
  5
8
330
0
100
AcDbSymbolTable
 70
     1
  0
VPORT
  5
29
330
8
100
AcDbSymbolTableRecord
100
AcDbViewportTableRecord
  2
*Active
 70
     0
 10
0.0
 20
0.0
 11
1.0
 21
1.0
 12
0.0
 22
0.0
 13
0.0
 23
0.0
 14
0.5
 24
0.5
 15
0.5
 25
0.5
 16
0.0
 26
0.0
 36
1.0
 17
8.0
 27
-6.0
 37
0.0
 40
12.0
 41
1.333333333333333
 42
50.0
 43
0.0
 44
0.0
 50
0.0
 51
0.0
 71
     0
 72
   100
 73
     1
 74
     3
 75
     0
 76
     0
 77
     0
 78
     0
281
     0
 65
     1
110
0.0
120
0.0
130
0.0
111
1.0
121
0.0
131
0.0
112
0.0
122
1.0
132
0.0
 79
     0
146
0.0
  0
ENDTAB
  0
TABLE
  2
LTYPE
  5
5
330
0
100
AcDbSymbolTable
 70
     1
  0
LTYPE
  5
14
330
5
100
AcDbSymbolTableRecord
100
AcDbLinetypeTableRecord
  2
ByBlock
 70
     0
  3

 72
    65
 73
     0
 40
0.0
  0
LTYPE
  5
15
330
5
100
AcDbSymbolTableRecord
100
AcDbLinetypeTableRecord
  2
ByLayer
 70
     0
  3

 72
    65
 73
     0
 40
0.0
  0
LTYPE
  5
16
330
5
100
AcDbSymbolTableRecord
100
AcDbLinetypeTableRecord
  2
Continuous
 70
     0
  3
Solid line
 72
    65
 73
     0
 40
0.0
  0
ENDTAB
  0
TABLE
  2
LAYER
  5
2
330
0
100
AcDbSymbolTable
 70
     2
  0
LAYER
  5
10
330
2
100
AcDbSymbolTableRecord
100
AcDbLayerTableRecord
  2
0
 70
     0
 62
     7
  6
Continuous
370
    -3
390
F
  0
LAYER
  5
3B
330
2
100
AcDbSymbolTableRecord
100
AcDbLayerTableRecord
  2
Layer 1
 70
     0
 62
     7
  6
Continuous
370
    -3
390
F
  0
ENDTAB
  0
TABLE
  2
STYLE
  5
3
330
0
100
AcDbSymbolTable
 70
     1
  0
STYLE
  5
11
330
3
100
AcDbSymbolTableRecord
100
AcDbTextStyleTableRecord
  2
Standard
 70
     0
 40
0.0
 41
1.0
 50
0.0
 71
     0
 42
0.2
  3
txt
  4

  0
ENDTAB
  0
TABLE
  2
VIEW
  5
6
330
0
100
AcDbSymbolTable
 70
     0
  0
ENDTAB
  0
TABLE
  2
UCS
  5
7
330
0
100
AcDbSymbolTable
 70
     0
  0
ENDTAB
  0
TABLE
  2
APPID
  5
9
330
0
100
AcDbSymbolTable
 70
     1
  0
APPID
  5
12
330
9
100
AcDbSymbolTableRecord
100
AcDbRegAppTableRecord
  2
ACAD
 70
     0
  0
ENDTAB
  0
TABLE
  2
DIMSTYLE
  5
A
330
0
100
AcDbSymbolTable
 70
     1
100
AcDbDimStyleTable
  0
DIMSTYLE
105
27
330
A
100
AcDbSymbolTableRecord
100
AcDbDimStyleTableRecord
  2
Standard
 70
     0
340
11
  0
ENDTAB
  0
TABLE
  2
BLOCK_RECORD
  5
1
330
0
100
AcDbSymbolTable
 70
     1
  0
BLOCK_RECORD
  5
1F
330
1
100
AcDbSymbolTableRecord
100
AcDbBlockTableRecord
  2
*Model_Space
340
22
  0
BLOCK_RECORD
  5
1B
330
1
100
AcDbSymbolTableRecord
100
AcDbBlockTableRecord
  2
*Paper_Space
340
1E
  0
BLOCK_RECORD
  5
23
330
1
100
AcDbSymbolTableRecord
100
AcDbBlockTableRecord
  2
*Paper_Space0
340
26
  0
ENDTAB
  0
ENDSEC
  0
SECTION
  2
BLOCKS
  0
BLOCK
  5
20
330
1F
100
AcDbEntity
  8
0
100
AcDbBlockBegin
  2
*Model_Space
 70
     0
 71
     0
 10
0.0
 20
0.0
 30
0.0
  3
*Model_Space
  1

  0
ENDBLK
  5
21
330
1F
100
AcDbEntity
  8
0
100
AcDbBlockEnd
  0
BLOCK
  5
1C
330
1B
100
AcDbEntity
 67
     1
  8
0
100
AcDbBlockBegin
  2
*Paper_Space
 70
     0
 71
     0
 10
0.0
 20
0.0
 30
0.0
  3
*Paper_Space
  1

  0
ENDBLK
  5
1D
330
1B
100
AcDbEntity
 67
     1
  8
0
100
AcDbBlockEnd
  0
BLOCK
  5
24
330
23
100
AcDbEntity
  8
0
100
AcDbBlockBegin
  2
*Paper_Space0
 70
     0
 71
     0
 10
0.0
 20
0.0
 30
0.0
  3
*Paper_Space0
  1

  0
ENDBLK
  5
25
330
23
100
AcDbEntity
  8
0
100
AcDbBlockEnd
  0
ENDSEC
  0
SECTION
  2
ENTITIES
  0
SPLINE
  5
3C
330
1F
100
AcDbEntity
  8
Layer 1
370
     0
100
AcDbSpline
210
0.0
220
0.0
230
1.0
 70
    11
 71
     3
 72
    17
 73
    13
 74
     0
 42
0.0000000001
 43
0.0000000001
 40
0.0
 40
0.0
 40
0.0
 40
0.0
 40
1.0
 40
1.0
 40
1.0
 40
2.0
 40
2.0
 40
2.0
 40
3.0
 40
3.0
 40
3.0
 40
4.0
 40
4.0
 40
4.0
 40
4.0
 10
11.5
 20
-6.0
 30
0.0
 10
11.5
 20
-9.037570529513888
 30
0.0
 10
9.037570529513888
 20
-11.5
 30
0.0
 10
6.0
 20
-11.5
 30
0.0
 10
2.962436252170139
 20
-11.5
 30
0.0
 10
0.5
 20
-9.037570529513888
 30
0.0
 10
0.5
 20
-6.0
 30
0.0
 10
0.5
 20
-2.962429470486111
 30
0.0
 10
2.962436252170139
 20
-0.5
 30
0.0
 10
6.0
 20
-0.5
 30
0.0
 10
9.037570529513888
 20
-0.5
 30
0.0
 10
11.5
 20
-2.962429470486111
 30
0.0
 10
11.5
 20
-6.0
 30
0.0
  0
SPLINE
  5
3D
330
1F
100
AcDbEntity
  8
Layer 1
370
     0
100
AcDbSpline
210
0.0
220
0.0
230
1.0
 70
    11
 71
     3
 72
    17
 73
    13
 74
     0
 42
0.0000000001
 43
0.0000000001
 40
0.0
 40
0.0
 40
0.0
 40
0.0
 40
1.0
 40
1.0
 40
1.0
 40
2.0
 40
2.0
 40
2.0
 40
3.0
 40
3.0
 40
3.0
 40
4.0
 40
4.0
 40
4.0
 40
4.0
 10
6.169508192274305
 20
-3.125
 30
0.0
 10
6.169508192274305
 20
-3.149576822916667
 30
0.0
 10
6.149583604600694
 20
-3.169501410590278
 30
0.0
 10
6.125006781684028
 20
-3.169501410590278
 30
0.0
 10
6.100429958767361
 20
-3.169501410590278
 30
0.0
 10
6.08050537109375
 20
-3.149576822916667
 30
0.0
 10
6.08050537109375
 20
-3.125
 30
0.0
 10
6.08050537109375
 20
-3.100423177083333
 30
0.0
 10
6.100429958767361
 20
-3.080498589409722
 30
0.0
 10
6.125006781684028
 20
-3.080498589409722
 30
0.0
 10
6.149583604600694
 20
-3.080498589409722
 30
0.0
 10
6.169508192274305
 20
-3.100423177083333
 30
0.0
 10
6.169508192274305
 20
-3.125
 30
0.0
  0
SPLINE
  5
3E
330
1F
100
AcDbEntity
  8
Layer 1
370
     0
100
AcDbSpline
210
0.0
220
0.0
230
1.0
 70
    11
 71
     3
 72
    17
 73
    13
 74
     0
 42
0.0000000001
 43
0.0000000001
 40
0.0
 40
0.0
 40
0.0
 40
0.0
 40
1.0
 40
1.0
 40
1.0
 40
2.0
 40
2.0
 40
2.0
 40
3.0
 40
3.0
 40
3.0
 40
4.0
 40
4.0
 40
4.0
 40
4.0
 10
9.919501410590277
 20
-3.125
 30
0.0
 10
9.919501410590277
 20
-3.149576822916667
 30
0.0
 10
9.899576822916666
 20
-3.169501410590278
 30
0.0
 10
9.875
 20
-3.169501410590278
 30
0.0
 10
9.850423177083332
 20
-3.169501410590278
 30
0.0
 10
9.830498589409721
 20
-3.149576822916667
 30
0.0
 10
9.830498589409721
 20
-3.125
 30
0.0
 10
9.830498589409721
 20
-3.100423177083333
 30
0.0
 10
9.850423177083332
 20
-3.080498589409722
 30
0.0
 10
9.875
 20
-3.080498589409722
 30
0.0
 10
9.899576822916666
 20
-3.080498589409722
 30
0.0
 10
9.919501410590277
 20
-3.100423177083333
 30
0.0
 10
9.919501410590277
 20
-3.125
 30
0.0
  0
SPLINE
  5
3F
330
1F
100
AcDbEntity
  8
Layer 1
370
     0
100
AcDbSpline
210
0.0
220
0.0
230
1.0
 70
    11
 71
     3
 72
    17
 73
    13
 74
     0
 42
0.0000000001
 43
0.0000000001
 40
0.0
 40
0.0
 40
0.0
 40
0.0
 40
1.0
 40
1.0
 40
1.0
 40
2.0
 40
2.0
 40
2.0
 40
3.0
 40
3.0
 40
3.0
 40
4.0
 40
4.0
 40
4.0
 40
4.0
 10
6.169508192274305
 20
-8.875
 30
0.0
 10
6.169508192274305
 20
-8.899576822916666
 30
0.0
 10
6.149583604600694
 20
-8.919501410590277
 30
0.0
 10
6.125006781684028
 20
-8.919501410590277
 30
0.0
 10
6.100429958767361
 20
-8.919501410590277
 30
0.0
 10
6.08050537109375
 20
-8.899576822916666
 30
0.0
 10
6.08050537109375
 20
-8.875
 30
0.0
 10
6.08050537109375
 20
-8.850423177083332
 30
0.0
 10
6.100429958767361
 20
-8.830498589409721
 30
0.0
 10
6.125006781684028
 20
-8.830498589409721
 30
0.0
 10
6.149583604600694
 20
-8.830498589409721
 30
0.0
 10
6.169508192274305
 20
-8.850423177083332
 30
0.0
 10
6.169508192274305
 20
-8.875
 30
0.0
  0
SPLINE
  5
40
330
1F
100
AcDbEntity
  8
Layer 1
370
     0
100
AcDbSpline
210
0.0
220
0.0
230
1.0
 70
    11
 71
     3
 72
    17
 73
    13
 74
     0
 42
0.0000000001
 43
0.0000000001
 40
0.0
 40
0.0
 40
0.0
 40
0.0
 40
1.0
 40
1.0
 40
1.0
 40
2.0
 40
2.0
 40
2.0
 40
3.0
 40
3.0
 40
3.0
 40
4.0
 40
4.0
 40
4.0
 40
4.0
 10
9.919501410590277
 20
-8.875
 30
0.0
 10
9.919501410590277
 20
-8.899576822916666
 30
0.0
 10
9.899576822916666
 20
-8.919501410590277
 30
0.0
 10
9.875
 20
-8.919501410590277
 30
0.0
 10
9.850423177083332
 20
-8.919501410590277
 30
0.0
 10
9.830498589409721
 20
-8.899576822916666
 30
0.0
 10
9.830498589409721
 20
-8.875
 30
0.0
 10
9.830498589409721
 20
-8.850423177083332
 30
0.0
 10
9.850423177083332
 20
-8.830498589409721
 30
0.0
 10
9.875
 20
-8.830498589409721
 30
0.0
 10
9.899576822916666
 20
-8.830498589409721
 30
0.0
 10
9.919501410590277
 20
-8.850423177083332
 30
0.0
 10
9.919501410590277
 20
-8.875
 30
0.0
  0
SPLINE
  5
41
330
1F
100
AcDbEntity
  8
Layer 1
370
     0
100
AcDbSpline
210
0.0
220
0.0
230
1.0
 70
    11
 71
     3
 72
    17
 73
    13
 74
     0
 42
0.0000000001
 43
0.0000000001
 40
0.0
 40
0.0
 40
0.0
 40
0.0
 40
1.0
 40
1.0
 40
1.0
 40
2.0
 40
2.0
 40
2.0
 40
3.0
 40
3.0
 40
3.0
 40
4.0
 40
4.0
 40
4.0
 40
4.0
 10
2.481703016493055
 20
-2.6875
 30
0.0
 10
2.481703016493055
 20
-2.712076822916667
 30
0.0
 10
2.461778428819444
 20
-2.732001410590278
 30
0.0
 10
2.437201605902778
 20
-2.732001410590278
 30
0.0
 10
2.412624782986111
 20
-2.732001410590278
 30
0.0
 10
2.3927001953125
 20
-2.712076822916667
 30
0.0
 10
2.3927001953125
 20
-2.6875
 30
0.0
 10
2.3927001953125
 20
-2.662923177083333
 30
0.0
 10
2.412624782986111
 20
-2.642998589409722
 30
0.0
 10
2.437201605902778
 20
-2.642998589409722
 30
0.0
 10
2.461778428819444
 20
-2.642998589409722
 30
0.0
 10
2.481703016493055
 20
-2.662923177083333
 30
0.0
 10
2.481703016493055
 20
-2.6875
 30
0.0
  0
SPLINE
  5
42
330
1F
100
AcDbEntity
  8
Layer 1
370
     0
100
AcDbSpline
210
0.0
220
0.0
230
1.0
 70
    11
 71
     3
 72
    17
 73
    13
 74
     0
 42
0.0000000001
 43
0.0000000001
 40
0.0
 40
0.0
 40
0.0
 40
0.0
 40
1.0
 40
1.0
 40
1.0
 40
2.0
 40
2.0
 40
2.0
 40
3.0
 40
3.0
 40
3.0
 40
4.0
 40
4.0
 40
4.0
 40
4.0
 10
5.106655544704861
 20
-2.6875
 30
0.0
 10
5.106655544704861
 20
-2.712076822916667
 30
0.0
 10
5.08673095703125
 20
-2.732001410590278
 30
0.0
 10
5.062154134114583
 20
-2.732001410590278
 30
0.0
 10
5.037577311197916
 20
-2.732001410590278
 30
0.0
 10
5.017652723524305
 20
-2.712076822916667
 30
0.0
 10
5.017652723524305
 20
-2.6875
 30
0.0
 10
5.017652723524305
 20
-2.662923177083333
 30
0.0
 10
5.037577311197916
 20
-2.642998589409722
 30
0.0
 10
5.062154134114583
 20
-2.642998589409722
 30
0.0
 10
5.08673095703125
 20
-2.642998589409722
 30
0.0
 10
5.106655544704861
 20
-2.662923177083333
 30
0.0
 10
5.106655544704861
 20
-2.6875
 30
0.0
  0
SPLINE
  5
43
330
1F
100
AcDbEntity
  8
Layer 1
370
     0
100
AcDbSpline
210
0.0
220
0.0
230
1.0
 70
    11
 71
     3
 72
    17
 73
    13
 74
     0
 42
0.0000000001
 43
0.0000000001
 40
0.0
 40
0.0
 40
0.0
 40
0.0
 40
1.0
 40
1.0
 40
1.0
 40
2.0
 40
2.0
 40
2.0
 40
3.0
 40
3.0
 40
3.0
 40
4.0
 40
4.0
 40
4.0
 40
4.0
 10
2.481703016493055
 20
-4.3125
 30
0.0
 10
2.481703016493055
 20
-4.337076822916666
 30
0.0
 10
2.461778428819444
 20
-4.357001410590278
 30
0.0
 10
2.437201605902778
 20
-4.357001410590278
 30
0.0
 10
2.412624782986111
 20
-4.357001410590278
 30
0.0
 10
2.3927001953125
 20
-4.337076822916666
 30
0.0
 10
2.3927001953125
 20
-4.3125
 30
0.0
 10
2.3927001953125
 20
-4.287923177083333
 30
0.0
 10
2.412624782986111
 20
-4.267998589409722
 30
0.0
 10
2.437201605902778
 20
-4.267998589409722
 30
0.0
 10
2.461778428819444
 20
-4.267998589409722
 30
0.0
 10
2.481703016493055
 20
-4.287923177083333
 30
0.0
 10
2.481703016493055
 20
-4.3125
 30
0.0
  0
SPLINE
  5
44
330
1F
100
AcDbEntity
  8
Layer 1
370
     0
100
AcDbSpline
210
0.0
220
0.0
230
1.0
 70
    11
 71
     3
 72
    17
 73
    13
 74
     0
 42
0.0000000001
 43
0.0000000001
 40
0.0
 40
0.0
 40
0.0
 40
0.0
 40
1.0
 40
1.0
 40
1.0
 40
2.0
 40
2.0
 40
2.0
 40
3.0
 40
3.0
 40
3.0
 40
4.0
 40
4.0
 40
4.0
 40
4.0
 10
5.106703016493055
 20
-4.3125
 30
0.0
 10
5.106703016493055
 20
-4.337076822916666
 30
0.0
 10
5.086778428819444
 20
-4.357001410590278
 30
0.0
 10
5.062201605902778
 20
-4.357001410590278
 30
0.0
 10
5.037624782986111
 20
-4.357001410590278
 30
0.0
 10
5.0177001953125
 20
-4.337076822916666
 30
0.0
 10
5.0177001953125
 20
-4.3125
 30
0.0
 10
5.0177001953125
 20
-4.287923177083333
 30
0.0
 10
5.037624782986111
 20
-4.267998589409722
 30
0.0
 10
5.062201605902778
 20
-4.267998589409722
 30
0.0
 10
5.086778428819444
 20
-4.267998589409722
 30
0.0
 10
5.106703016493055
 20
-4.287923177083333
 30
0.0
 10
5.106703016493055
 20
-4.3125
 30
0.0
  0
SPLINE
  5
45
330
1F
100
AcDbEntity
  8
Layer 1
370
     0
100
AcDbSpline
210
0.0
220
0.0
230
1.0
 70
    11
 71
     3
 72
    17
 73
    13
 74
     0
 42
0.0000000001
 43
0.0000000001
 40
0.0
 40
0.0
 40
0.0
 40
0.0
 40
1.0
 40
1.0
 40
1.0
 40
2.0
 40
2.0
 40
2.0
 40
3.0
 40
3.0
 40
3.0
 40
4.0
 40
4.0
 40
4.0
 40
4.0
 10
2.48175048828125
 20
-7.6875
 30
0.0
 10
2.48175048828125
 20
-7.712076822916666
 30
0.0
 10
2.461825900607639
 20
-7.732001410590278
 30
0.0
 10
2.437249077690972
 20
-7.732001410590278
 30
0.0
 10
2.412672254774305
 20
-7.732001410590278
 30
0.0
 10
2.392747667100694
 20
-7.712076822916666
 30
0.0
 10
2.392747667100694
 20
-7.6875
 30
0.0
 10
2.392747667100694
 20
-7.662923177083333
 30
0.0
 10
2.412672254774305
 20
-7.642998589409721
 30
0.0
 10
2.437249077690972
 20
-7.642998589409721
 30
0.0
 10
2.461825900607639
 20
-7.642998589409721
 30
0.0
 10
2.48175048828125
 20
-7.662923177083333
 30
0.0
 10
2.48175048828125
 20
-7.6875
 30
0.0
  0
SPLINE
  5
46
330
1F
100
AcDbEntity
  8
Layer 1
370
     0
100
AcDbSpline
210
0.0
220
0.0
230
1.0
 70
    11
 71
     3
 72
    17
 73
    13
 74
     0
 42
0.0000000001
 43
0.0000000001
 40
0.0
 40
0.0
 40
0.0
 40
0.0
 40
1.0
 40
1.0
 40
1.0
 40
2.0
 40
2.0
 40
2.0
 40
3.0
 40
3.0
 40
3.0
 40
4.0
 40
4.0
 40
4.0
 40
4.0
 10
5.10675048828125
 20
-7.6875
 30
0.0
 10
5.10675048828125
 20
-7.712076822916666
 30
0.0
 10
5.086825900607638
 20
-7.732001410590278
 30
0.0
 10
5.062249077690972
 20
-7.732001410590278
 30
0.0
 10
5.037672254774305
 20
-7.732001410590278
 30
0.0
 10
5.017747667100694
 20
-7.712076822916666
 30
0.0
 10
5.017747667100694
 20
-7.6875
 30
0.0
 10
5.017747667100694
 20
-7.662923177083333
 30
0.0
 10
5.037672254774305
 20
-7.642998589409721
 30
0.0
 10
5.062249077690972
 20
-7.642998589409721
 30
0.0
 10
5.086825900607638
 20
-7.642998589409721
 30
0.0
 10
5.10675048828125
 20
-7.662923177083333
 30
0.0
 10
5.10675048828125
 20
-7.6875
 30
0.0
  0
SPLINE
  5
47
330
1F
100
AcDbEntity
  8
Layer 1
370
     0
100
AcDbSpline
210
0.0
220
0.0
230
1.0
 70
    11
 71
     3
 72
    17
 73
    13
 74
     0
 42
0.0000000001
 43
0.0000000001
 40
0.0
 40
0.0
 40
0.0
 40
0.0
 40
1.0
 40
1.0
 40
1.0
 40
2.0
 40
2.0
 40
2.0
 40
3.0
 40
3.0
 40
3.0
 40
4.0
 40
4.0
 40
4.0
 40
4.0
 10
2.48175048828125
 20
-9.3125
 30
0.0
 10
2.48175048828125
 20
-9.337076822916666
 30
0.0
 10
2.461825900607639
 20
-9.357001410590277
 30
0.0
 10
2.437249077690972
 20
-9.357001410590277
 30
0.0
 10
2.412672254774305
 20
-9.357001410590277
 30
0.0
 10
2.392747667100694
 20
-9.337076822916666
 30
0.0
 10
2.392747667100694
 20
-9.3125
 30
0.0
 10
2.392747667100694
 20
-9.287923177083332
 30
0.0
 10
2.412672254774305
 20
-9.267998589409721
 30
0.0
 10
2.437249077690972
 20
-9.267998589409721
 30
0.0
 10
2.461825900607639
 20
-9.267998589409721
 30
0.0
 10
2.48175048828125
 20
-9.287923177083332
 30
0.0
 10
2.48175048828125
 20
-9.3125
 30
0.0
  0
SPLINE
  5
48
330
1F
100
AcDbEntity
  8
Layer 1
370
     0
100
AcDbSpline
210
0.0
220
0.0
230
1.0
 70
    11
 71
     3
 72
    17
 73
    13
 74
     0
 42
0.0000000001
 43
0.0000000001
 40
0.0
 40
0.0
 40
0.0
 40
0.0
 40
1.0
 40
1.0
 40
1.0
 40
2.0
 40
2.0
 40
2.0
 40
3.0
 40
3.0
 40
3.0
 40
4.0
 40
4.0
 40
4.0
 40
4.0
 10
5.10675048828125
 20
-9.3125
 30
0.0
 10
5.10675048828125
 20
-9.337076822916666
 30
0.0
 10
5.086825900607638
 20
-9.357001410590277
 30
0.0
 10
5.062249077690972
 20
-9.357001410590277
 30
0.0
 10
5.037672254774305
 20
-9.357001410590277
 30
0.0
 10
5.017747667100694
 20
-9.337076822916666
 30
0.0
 10
5.017747667100694
 20
-9.3125
 30
0.0
 10
5.017747667100694
 20
-9.287923177083332
 30
0.0
 10
5.037672254774305
 20
-9.267998589409721
 30
0.0
 10
5.062249077690972
 20
-9.267998589409721
 30
0.0
 10
5.086825900607638
 20
-9.267998589409721
 30
0.0
 10
5.10675048828125
 20
-9.287923177083332
 30
0.0
 10
5.10675048828125
 20
-9.3125
 30
0.0
  0
SPLINE
  5
49
330
1F
100
AcDbEntity
  8
Layer 1
370
     0
100
AcDbSpline
210
0.0
220
0.0
230
1.0
 70
    11
 71
     3
 72
    17
 73
    13
 74
     0
 42
0.0000000001
 43
0.0000000001
 40
0.0
 40
0.0
 40
0.0
 40
0.0
 40
1.0
 40
1.0
 40
1.0
 40
2.0
 40
2.0
 40
2.0
 40
3.0
 40
3.0
 40
3.0
 40
4.0
 40
4.0
 40
4.0
 40
4.0
 10
2.827277289496528
 20
-5.035000271267361
 30
0.0
 10
2.827277289496528
 20
-5.059577094184028
 30
0.0
 10
2.807352701822917
 20
-5.079501681857638
 30
0.0
 10
2.78277587890625
 20
-5.079501681857638
 30
0.0
 10
2.758199055989583
 20
-5.079501681857638
 30
0.0
 10
2.738274468315972
 20
-5.059577094184028
 30
0.0
 10
2.738274468315972
 20
-5.035000271267361
 30
0.0
 10
2.738274468315972
 20
-5.010423448350694
 30
0.0
 10
2.758199055989583
 20
-4.990498860677083
 30
0.0
 10
2.78277587890625
 20
-4.990498860677083
 30
0.0
 10
2.807352701822917
 20
-4.990498860677083
 30
0.0
 10
2.827277289496528
 20
-5.010423448350694
 30
0.0
 10
2.827277289496528
 20
-5.035000271267361
 30
0.0
  0
SPLINE
  5
4A
330
1F
100
AcDbEntity
  8
Layer 1
370
     0
100
AcDbSpline
210
0.0
220
0.0
230
1.0
 70
    11
 71
     3
 72
    17
 73
    13
 74
     0
 42
0.0000000001
 43
0.0000000001
 40
0.0
 40
0.0
 40
0.0
 40
0.0
 40
1.0
 40
1.0
 40
1.0
 40
2.0
 40
2.0
 40
2.0
 40
3.0
 40
3.0
 40
3.0
 40
4.0
 40
4.0
 40
4.0
 40
4.0
 10
5.107326931423611
 20
-5.035000271267361
 30
0.0
 10
5.107326931423611
 20
-5.059577094184028
 30
0.0
 10
5.08740234375
 20
-5.079501681857638
 30
0.0
 10
5.062825520833333
 20
-5.079501681857638
 30
0.0
 10
5.038248697916666
 20
-5.079501681857638
 30
0.0
 10
5.018324110243055
 20
-5.059577094184028
 30
0.0
 10
5.018324110243055
 20
-5.035000271267361
 30
0.0
 10
5.018324110243055
 20
-5.010423448350694
 30
0.0
 10
5.038248697916666
 20
-4.990498860677083
 30
0.0
 10
5.062825520833333
 20
-4.990498860677083
 30
0.0
 10
5.08740234375
 20
-4.990498860677083
 30
0.0
 10
5.107326931423611
 20
-5.010423448350694
 30
0.0
 10
5.107326931423611
 20
-5.035000271267361
 30
0.0
  0
SPLINE
  5
4B
330
1F
100
AcDbEntity
  8
Layer 1
370
     0
100
AcDbSpline
210
0.0
220
0.0
230
1.0
 70
    11
 71
     3
 72
    17
 73
    13
 74
     0
 42
0.0000000001
 43
0.0000000001
 40
0.0
 40
0.0
 40
0.0
 40
0.0
 40
1.0
 40
1.0
 40
1.0
 40
2.0
 40
2.0
 40
2.0
 40
3.0
 40
3.0
 40
3.0
 40
4.0
 40
4.0
 40
4.0
 40
4.0
 10
2.827277289496528
 20
-6.965006510416666
 30
0.0
 10
2.827277289496528
 20
-6.989583333333333
 30
0.0
 10
2.807352701822917
 20
-7.009494357638888
 30
0.0
 10
2.78277587890625
 20
-7.009494357638888
 30
0.0
 10
2.758199055989583
 20
-7.009494357638888
 30
0.0
 10
2.738274468315972
 20
-6.989583333333333
 30
0.0
 10
2.738274468315972
 20
-6.965006510416666
 30
0.0
 10
2.738274468315972
 20
-6.9404296875
 30
0.0
 10
2.758199055989583
 20
-6.920491536458333
 30
0.0
 10
2.78277587890625
 20
-6.920491536458333
 30
0.0
 10
2.807352701822917
 20
-6.920491536458333
 30
0.0
 10
2.827277289496528
 20
-6.9404296875
 30
0.0
 10
2.827277289496528
 20
-6.965006510416666
 30
0.0
  0
SPLINE
  5
4C
330
1F
100
AcDbEntity
  8
Layer 1
370
     0
100
AcDbSpline
210
0.0
220
0.0
230
1.0
 70
    11
 71
     3
 72
    17
 73
    13
 74
     0
 42
0.0000000001
 43
0.0000000001
 40
0.0
 40
0.0
 40
0.0
 40
0.0
 40
1.0
 40
1.0
 40
1.0
 40
2.0
 40
2.0
 40
2.0
 40
3.0
 40
3.0
 40
3.0
 40
4.0
 40
4.0
 40
4.0
 40
4.0
 10
5.107279459635416
 20
-6.965006510416666
 30
0.0
 10
5.107279459635416
 20
-6.989583333333333
 30
0.0
 10
5.087354871961805
 20
-7.009494357638888
 30
0.0
 10
5.062778049045138
 20
-7.009494357638888
 30
0.0
 10
5.038201226128472
 20
-7.009494357638888
 30
0.0
 10
5.018276638454861
 20
-6.989583333333333
 30
0.0
 10
5.018276638454861
 20
-6.965006510416666
 30
0.0
 10
5.018276638454861
 20
-6.9404296875
 30
0.0
 10
5.038201226128472
 20
-6.920491536458333
 30
0.0
 10
5.062778049045138
 20
-6.920491536458333
 30
0.0
 10
5.087354871961805
 20
-6.920491536458333
 30
0.0
 10
5.107279459635416
 20
-6.9404296875
 30
0.0
 10
5.107279459635416
 20
-6.965006510416666
 30
0.0
  0
SPLINE
  5
4D
330
1F
100
AcDbEntity
  8
Layer 1
370
     0
100
AcDbSpline
210
0.0
220
0.0
230
1.0
 70
    11
 71
     3
 72
    29
 73
    25
 74
     0
 42
0.0000000001
 43
0.0000000001
 40
0.0
 40
0.0
 40
0.0
 40
0.0
 40
1.0
 40
1.0
 40
1.0
 40
2.0
 40
2.0
 40
2.0
 40
3.0
 40
3.0
 40
3.0
 40
4.0
 40
4.0
 40
4.0
 40
5.0
 40
5.0
 40
5.0
 40
6.0
 40
6.0
 40
6.0
 40
7.0
 40
7.0
 40
7.0
 40
8.0
 40
8.0
 40
8.0
 40
8.0
 10
4.874701605902778
 20
-3.973490397135417
 30
0.0
 10
4.874701605902778
 20
-4.057169596354166
 30
0.0
 10
4.804009331597222
 20
-4.125006781684028
 30
0.0
 10
4.716803656684028
 20
-4.125006781684028
 30
0.0
 10
4.716803656684028
 20
-4.125006781684028
 30
0.0
 10
2.782599555121528
 20
-4.125006781684028
 30
0.0
 10
2.782599555121528
 20
-4.125006781684028
 30
0.0
 10
2.695393880208333
 20
-4.125006781684028
 30
0.0
 10
2.624701605902778
 20
-4.057169596354166
 30
0.0
 10
2.624701605902778
 20
-3.973490397135417
 30
0.0
 10
2.624701605902778
 20
-3.973490397135417
 30
0.0
 10
2.624701605902778
 20
-3.026523166232639
 30
0.0
 10
2.624701605902778
 20
-3.026523166232639
 30
0.0
 10
2.624701605902778
 20
-2.942843967013889
 30
0.0
 10
2.695393880208333
 20
-2.875006781684028
 30
0.0
 10
2.782599555121528
 20
-2.875006781684028
 30
0.0
 10
2.782599555121528
 20
-2.875006781684028
 30
0.0
 10
4.716803656684028
 20
-2.875006781684028
 30
0.0
 10
4.716803656684028
 20
-2.875006781684028
 30
0.0
 10
4.804009331597222
 20
-2.875006781684028
 30
0.0
 10
4.874701605902778
 20
-2.942843967013889
 30
0.0
 10
4.874701605902778
 20
-3.026523166232639
 30
0.0
 10
4.874701605902778
 20
-3.026523166232639
 30
0.0
 10
4.874701605902778
 20
-3.973490397135417
 30
0.0
 10
4.874701605902778
 20
-3.973490397135417
 30
0.0
  0
SPLINE
  5
4E
330
1F
100
AcDbEntity
  8
Layer 1
370
     0
100
AcDbSpline
210
0.0
220
0.0
230
1.0
 70
    11
 71
     3
 72
    29
 73
    25
 74
     0
 42
0.0000000001
 43
0.0000000001
 40
0.0
 40
0.0
 40
0.0
 40
0.0
 40
1.0
 40
1.0
 40
1.0
 40
2.0
 40
2.0
 40
2.0
 40
3.0
 40
3.0
 40
3.0
 40
4.0
 40
4.0
 40
4.0
 40
5.0
 40
5.0
 40
5.0
 40
6.0
 40
6.0
 40
6.0
 40
7.0
 40
7.0
 40
7.0
 40
8.0
 40
8.0
 40
8.0
 40
8.0
 10
4.874749077690972
 20
-8.973483615451388
 30
0.0
 10
4.874749077690972
 20
-9.05715603298611
 30
0.0
 10
4.804056803385416
 20
-9.125
 30
0.0
 10
4.716851128472222
 20
-9.125
 30
0.0
 10
4.716851128472222
 20
-9.125
 30
0.0
 10
2.782647026909722
 20
-9.125
 30
0.0
 10
2.782647026909722
 20
-9.125
 30
0.0
 10
2.695441351996528
 20
-9.125
 30
0.0
 10
2.624749077690972
 20
-9.05715603298611
 30
0.0
 10
2.624749077690972
 20
-8.973483615451388
 30
0.0
 10
2.624749077690972
 20
-8.973483615451388
 30
0.0
 10
2.624749077690972
 20
-8.02651638454861
 30
0.0
 10
2.624749077690972
 20
-8.02651638454861
 30
0.0
 10
2.624749077690972
 20
-7.942843967013888
 30
0.0
 10
2.695441351996528
 20
-7.875
 30
0.0
 10
2.782647026909722
 20
-7.875
 30
0.0
 10
2.782647026909722
 20
-7.875
 30
0.0
 10
4.716851128472222
 20
-7.875
 30
0.0
 10
4.716851128472222
 20
-7.875
 30
0.0
 10
4.804056803385416
 20
-7.875
 30
0.0
 10
4.874749077690972
 20
-7.942843967013888
 30
0.0
 10
4.874749077690972
 20
-8.02651638454861
 30
0.0
 10
4.874749077690972
 20
-8.02651638454861
 30
0.0
 10
4.874749077690972
 20
-8.973483615451388
 30
0.0
 10
4.874749077690972
 20
-8.973483615451388
 30
0.0
  0
SPLINE
  5
4F
330
1F
100
AcDbEntity
  8
Layer 1
370
     0
100
AcDbSpline
210
0.0
220
0.0
230
1.0
 70
    11
 71
     3
 72
    29
 73
    25
 74
     0
 42
0.0000000001
 43
0.0000000001
 40
0.0
 40
0.0
 40
0.0
 40
0.0
 40
1.0
 40
1.0
 40
1.0
 40
2.0
 40
2.0
 40
2.0
 40
3.0
 40
3.0
 40
3.0
 40
4.0
 40
4.0
 40
4.0
 40
5.0
 40
5.0
 40
5.0
 40
6.0
 40
6.0
 40
6.0
 40
7.0
 40
7.0
 40
7.0
 40
8.0
 40
8.0
 40
8.0
 40
8.0
 10
9.375
 20
-8.208333333333332
 30
0.0
 10
9.375
 20
-8.300374348958332
 30
0.0
 10
9.300374348958332
 20
-8.375
 30
0.0
 10
9.208333333333332
 20
-8.375
 30
0.0
 10
9.208333333333332
 20
-8.375
 30
0.0
 10
6.791673448350694
 20
-8.375
 30
0.0
 10
6.791673448350694
 20
-8.375
 30
0.0
 10
6.699625651041666
 20
-8.375
 30
0.0
 10
6.625006781684028
 20
-8.300374348958332
 30
0.0
 10
6.625006781684028
 20
-8.208333333333332
 30
0.0
 10
6.625006781684028
 20
-8.208333333333332
 30
0.0
 10
6.625006781684028
 20
-3.791673448350694
 30
0.0
 10
6.625006781684028
 20
-3.791673448350694
 30
0.0
 10
6.625006781684028
 20
-3.699625651041667
 30
0.0
 10
6.699625651041666
 20
-3.625006781684028
 30
0.0
 10
6.791673448350694
 20
-3.625006781684028
 30
0.0
 10
6.791673448350694
 20
-3.625006781684028
 30
0.0
 10
9.208333333333332
 20
-3.625006781684028
 30
0.0
 10
9.208333333333332
 20
-3.625006781684028
 30
0.0
 10
9.300374348958332
 20
-3.625006781684028
 30
0.0
 10
9.375
 20
-3.699625651041667
 30
0.0
 10
9.375
 20
-3.791673448350694
 30
0.0
 10
9.375
 20
-3.791673448350694
 30
0.0
 10
9.375
 20
-8.208333333333332
 30
0.0
 10
9.375
 20
-8.208333333333332
 30
0.0
  0
SPLINE
  5
50
330
1F
100
AcDbEntity
  8
Layer 1
370
     0
100
AcDbSpline
210
0.0
220
0.0
230
1.0
 70
    11
 71
     3
 72
    29
 73
    25
 74
     0
 42
0.0000000001
 43
0.0000000001
 40
0.0
 40
0.0
 40
0.0
 40
0.0
 40
1.0
 40
1.0
 40
1.0
 40
2.0
 40
2.0
 40
2.0
 40
3.0
 40
3.0
 40
3.0
 40
4.0
 40
4.0
 40
4.0
 40
5.0
 40
5.0
 40
5.0
 40
6.0
 40
6.0
 40
6.0
 40
7.0
 40
7.0
 40
7.0
 40
8.0
 40
8.0
 40
8.0
 40
8.0
 10
4.812276204427083
 20
-6.583333333333333
 30
0.0
 10
4.812276204427083
 20
-6.675374348958333
 30
0.0
 10
4.737657335069444
 20
-6.75
 30
0.0
 10
4.645609537760416
 20
-6.75
 30
0.0
 10
4.645609537760416
 20
-6.75
 30
0.0
 10
3.22894287109375
 20
-6.75
 30
0.0
 10
3.22894287109375
 20
-6.75
 30
0.0
 10
3.136895073784722
 20
-6.75
 30
0.0
 10
3.062276204427083
 20
-6.675374348958333
 30
0.0
 10
3.062276204427083
 20
-6.583333333333333
 30
0.0
 10
3.062276204427083
 20
-6.583333333333333
 30
0.0
 10
3.062276204427083
 20
-5.416666666666666
 30
0.0
 10
3.062276204427083
 20
-5.416666666666666
 30
0.0
 10
3.062276204427083
 20
-5.324618869357638
 30
0.0
 10
3.136895073784722
 20
-5.25
 30
0.0
 10
3.22894287109375
 20
-5.25
 30
0.0
 10
3.22894287109375
 20
-5.25
 30
0.0
 10
4.645609537760416
 20
-5.25
 30
0.0
 10
4.645609537760416
 20
-5.25
 30
0.0
 10
4.737657335069444
 20
-5.25
 30
0.0
 10
4.812276204427083
 20
-5.324618869357638
 30
0.0
 10
4.812276204427083
 20
-5.416666666666666
 30
0.0
 10
4.812276204427083
 20
-5.416666666666666
 30
0.0
 10
4.812276204427083
 20
-6.583333333333333
 30
0.0
 10
4.812276204427083
 20
-6.583333333333333
 30
0.0
  0
SPLINE
  5
51
330
1F
100
AcDbEntity
  8
Layer 1
370
     0
100
AcDbSpline
210
0.0
220
0.0
230
1.0
 70
    11
 71
     3
 72
    17
 73
    13
 74
     0
 42
0.0000000001
 43
0.0000000001
 40
0.0
 40
0.0
 40
0.0
 40
0.0
 40
1.0
 40
1.0
 40
1.0
 40
2.0
 40
2.0
 40
2.0
 40
3.0
 40
3.0
 40
3.0
 40
4.0
 40
4.0
 40
4.0
 40
4.0
 10
1.308878580729167
 20
-4.724907769097222
 30
0.0
 10
1.326253255208333
 20
-4.742289225260416
 30
0.0
 10
1.326253255208333
 20
-4.770467122395833
 30
0.0
 10
1.308878580729167
 20
-4.787841796875
 30
0.0
 10
1.291497124565972
 20
-4.805223253038194
 30
0.0
 10
1.263319227430556
 20
-4.805223253038194
 30
0.0
 10
1.245944552951389
 20
-4.787841796875
 30
0.0
 10
1.228563096788194
 20
-4.770467122395833
 30
0.0
 10
1.228563096788194
 20
-4.742289225260416
 30
0.0
 10
1.245944552951389
 20
-4.724907769097222
 30
0.0
 10
1.263319227430556
 20
-4.707533094618055
 30
0.0
 10
1.291497124565972
 20
-4.707533094618055
 30
0.0
 10
1.308878580729167
 20
-4.724907769097222
 30
0.0
  0
SPLINE
  5
52
330
1F
100
AcDbEntity
  8
Layer 1
370
     0
100
AcDbSpline
210
0.0
220
0.0
230
1.0
 70
    11
 71
     3
 72
    17
 73
    13
 74
     0
 42
0.0000000001
 43
0.0000000001
 40
0.0
 40
0.0
 40
0.0
 40
0.0
 40
1.0
 40
1.0
 40
1.0
 40
2.0
 40
2.0
 40
2.0
 40
3.0
 40
3.0
 40
3.0
 40
4.0
 40
4.0
 40
4.0
 40
4.0
 10
7.275092230902778
 20
-10.69112141927083
 30
0.0
 10
7.292466905381944
 20
-10.70849609375
 30
0.0
 10
7.292466905381944
 20
-10.73668077256944
 30
0.0
 10
7.275092230902778
 20
-10.75405544704861
 30
0.0
 10
7.257710774739583
 20
-10.77143012152778
 30
0.0
 10
7.229532877604166
 20
-10.77143012152778
 30
0.0
 10
7.212158203125
 20
-10.75405544704861
 30
0.0
 10
7.194776746961805
 20
-10.73668077256944
 30
0.0
 10
7.194776746961805
 20
-10.70849609375
 30
0.0
 10
7.212158203125
 20
-10.69112141927083
 30
0.0
 10
7.229532877604166
 20
-10.67374674479167
 30
0.0
 10
7.257710774739583
 20
-10.67374674479167
 30
0.0
 10
7.275092230902778
 20
-10.69112141927083
 30
0.0
  0
SPLINE
  5
53
330
1F
100
AcDbEntity
  8
Layer 1
370
     0
100
AcDbSpline
210
0.0
220
0.0
230
1.0
 70
    11
 71
     3
 72
    17
 73
    13
 74
     0
 42
0.0000000001
 43
0.0000000001
 40
0.0
 40
0.0
 40
0.0
 40
0.0
 40
1.0
 40
1.0
 40
1.0
 40
2.0
 40
2.0
 40
2.0
 40
3.0
 40
3.0
 40
3.0
 40
4.0
 40
4.0
 40
4.0
 40
4.0
 10
4.787841796875
 20
-1.245944552951389
 30
0.0
 10
4.805223253038194
 20
-1.263319227430556
 30
0.0
 10
4.805223253038194
 20
-1.291497124565972
 30
0.0
 10
4.787841796875
 20
-1.308878580729167
 30
0.0
 10
4.770467122395833
 20
-1.326253255208333
 30
0.0
 10
4.742289225260416
 20
-1.326253255208333
 30
0.0
 10
4.724907769097222
 20
-1.308878580729167
 30
0.0
 10
4.707533094618055
 20
-1.291497124565972
 30
0.0
 10
4.707533094618055
 20
-1.263319227430556
 30
0.0
 10
4.724907769097222
 20
-1.245944552951389
 30
0.0
 10
4.742289225260416
 20
-1.228563096788194
 30
0.0
 10
4.770467122395833
 20
-1.228563096788194
 30
0.0
 10
4.787841796875
 20
-1.245944552951389
 30
0.0
  0
SPLINE
  5
54
330
1F
100
AcDbEntity
  8
Layer 1
370
     0
100
AcDbSpline
210
0.0
220
0.0
230
1.0
 70
    11
 71
     3
 72
    17
 73
    13
 74
     0
 42
0.0000000001
 43
0.0000000001
 40
0.0
 40
0.0
 40
0.0
 40
0.0
 40
1.0
 40
1.0
 40
1.0
 40
2.0
 40
2.0
 40
2.0
 40
3.0
 40
3.0
 40
3.0
 40
4.0
 40
4.0
 40
4.0
 40
4.0
 10
10.75405544704861
 20
-7.212158203125
 30
0.0
 10
10.77143012152778
 20
-7.229532877604166
 30
0.0
 10
10.77143012152778
 20
-7.257717556423611
 30
0.0
 10
10.75405544704861
 20
-7.275092230902778
 30
0.0
 10
10.73668077256944
 20
-7.292466905381944
 30
0.0
 10
10.70849609375
 20
-7.292466905381944
 30
0.0
 10
10.69112141927083
 20
-7.275092230902778
 30
0.0
 10
10.67374674479167
 20
-7.257717556423611
 30
0.0
 10
10.67374674479167
 20
-7.229532877604166
 30
0.0
 10
10.69112141927083
 20
-7.212158203125
 30
0.0
 10
10.70849609375
 20
-7.194769965277778
 30
0.0
 10
10.73668077256944
 20
-7.194769965277778
 30
0.0
 10
10.75405544704861
 20
-7.212158203125
 30
0.0
  0
SPLINE
  5
55
330
1F
100
AcDbEntity
  8
Layer 1
370
     0
100
AcDbSpline
210
0.0
220
0.0
230
1.0
 70
    11
 71
     3
 72
    17
 73
    13
 74
     0
 42
0.0000000001
 43
0.0000000001
 40
0.0
 40
0.0
 40
0.0
 40
0.0
 40
1.0
 40
1.0
 40
1.0
 40
2.0
 40
2.0
 40
2.0
 40
3.0
 40
3.0
 40
3.0
 40
4.0
 40
4.0
 40
4.0
 40
4.0
 10
2.0
 20
-6.5
 30
0.0
 10
2.0
 20
-6.638075086805555
 30
0.0
 10
1.888068305121528
 20
-6.75
 30
0.0
 10
1.75
 20
-6.75
 30
0.0
 10
1.611931694878472
 20
-6.75
 30
0.0
 10
1.5
 20
-6.638075086805555
 30
0.0
 10
1.5
 20
-6.5
 30
0.0
 10
1.5
 20
-6.361924913194444
 30
0.0
 10
1.611931694878472
 20
-6.25
 30
0.0
 10
1.75
 20
-6.25
 30
0.0
 10
1.888068305121528
 20
-6.25
 30
0.0
 10
2.0
 20
-6.361924913194444
 30
0.0
 10
2.0
 20
-6.5
 30
0.0
  0
SPLINE
  5
56
330
1F
100
AcDbEntity
  8
Layer 1
370
     0
100
AcDbSpline
210
0.0
220
0.0
230
1.0
 70
    11
 71
     3
 72
    17
 73
    13
 74
     0
 42
0.0000000001
 43
0.0000000001
 40
0.0
 40
0.0
 40
0.0
 40
0.0
 40
1.0
 40
1.0
 40
1.0
 40
2.0
 40
2.0
 40
2.0
 40
3.0
 40
3.0
 40
3.0
 40
4.0
 40
4.0
 40
4.0
 40
4.0
 10
1.875
 20
-5.5
 30
0.0
 10
1.875
 20
-5.569037543402778
 30
0.0
 10
1.819037543402778
 20
-5.625
 30
0.0
 10
1.75
 20
-5.625
 30
0.0
 10
1.680962456597222
 20
-5.625
 30
0.0
 10
1.625
 20
-5.569037543402778
 30
0.0
 10
1.625
 20
-5.5
 30
0.0
 10
1.625
 20
-5.430962456597222
 30
0.0
 10
1.680962456597222
 20
-5.375
 30
0.0
 10
1.75
 20
-5.375
 30
0.0
 10
1.819037543402778
 20
-5.375
 30
0.0
 10
1.875
 20
-5.430962456597222
 30
0.0
 10
1.875
 20
-5.5
 30
0.0
  0
MTEXT
  5
57
330
1F
100
AcDbEntity
  8
Layer 1
 62
     7
420
 16777215
100
AcDbMText
 10
5.228563096788194
 20
-6.359931098090278
 30
0.0
 40
0.0944444444444445
 41
0.0
 71
     7
 72
     1
  1
\fMyriad Pro|b0|i0|c0|p34;\W1;Raspberry Pi
 11
-4.371139000186241E-8
 21
0.999999999999999
 31
0.0
 73
     1
 44
1.0
  0
MTEXT
  5
58
330
1F
100
AcDbEntity
  8
Layer 1
 62
     7
420
 16777215
100
AcDbMText
 10
10.040771484375
 20
-6.150010850694444
 30
0.0
 40
0.0944444444444445
 41
0.0
 71
     7
 72
     1
  1
\fMyriad Pro|b0|i0|c0|p34;\W1;PSoC
 11
-4.371139000186241E-8
 21
0.999999999999999
 31
0.0
 73
     1
 44
1.0
  0
MTEXT
  5
59
330
1F
100
AcDbEntity
  8
Layer 1
 62
     7
420
 16777215
100
AcDbMText
 10
2.290771484375
 20
-6.705268012152778
 30
0.0
 40
0.0944444444444445
 41
0.0
 71
     7
 72
     1
  1
\fMyriad Pro|b0|i0|c0|p34;\W1;Motors
 11
-4.371139000186241E-8
 21
0.999999999999999
 31
0.0
 73
     1
 44
1.0
  0
MTEXT
  5
5A
330
1F
100
AcDbEntity
  8
Layer 1
 62
     7
420
 16777215
100
AcDbMText
 10
2.290771484375
 20
-5.813883463541666
 30
0.0
 40
0.0944444444444445
 41
0.0
 71
     7
 72
     1
  1
\fMyriad Pro|b0|i0|c0|p34;\W1;Electronics
 11
-4.371139000186241E-8
 21
0.999999999999999
 31
0.0
 73
     1
 44
1.0
  0
SPLINE
  5
5B
330
1F
100
AcDbEntity
  8
Layer 1
370
     0
100
AcDbSpline
210
0.0
220
0.0
230
1.0
 70
    11
 71
     3
 72
    17
 73
    13
 74
     0
 42
0.0000000001
 43
0.0000000001
 40
0.0
 40
0.0
 40
0.0
 40
0.0
 40
1.0
 40
1.0
 40
1.0
 40
2.0
 40
2.0
 40
2.0
 40
3.0
 40
3.0
 40
3.0
 40
4.0
 40
4.0
 40
4.0
 40
4.0
 10
10.54450141059028
 20
-5.5
 30
0.0
 10
10.54450141059028
 20
-5.524576822916666
 30
0.0
 10
10.52457682291667
 20
-5.544501410590278
 30
0.0
 10
10.5
 20
-5.544501410590278
 30
0.0
 10
10.47542317708333
 20
-5.544501410590278
 30
0.0
 10
10.45549858940972
 20
-5.524576822916666
 30
0.0
 10
10.45549858940972
 20
-5.5
 30
0.0
 10
10.45549858940972
 20
-5.475423177083333
 30
0.0
 10
10.47542317708333
 20
-5.455498589409722
 30
0.0
 10
10.5
 20
-5.455498589409722
 30
0.0
 10
10.52457682291667
 20
-5.455498589409722
 30
0.0
 10
10.54450141059028
 20
-5.475423177083333
 30
0.0
 10
10.54450141059028
 20
-5.5
 30
0.0
  0
SPLINE
  5
5C
330
1F
100
AcDbEntity
  8
Layer 1
370
     0
100
AcDbSpline
210
0.0
220
0.0
230
1.0
 70
    11
 71
     3
 72
    17
 73
    13
 74
     0
 42
0.0000000001
 43
0.0000000001
 40
0.0
 40
0.0
 40
0.0
 40
0.0
 40
1.0
 40
1.0
 40
1.0
 40
2.0
 40
2.0
 40
2.0
 40
3.0
 40
3.0
 40
3.0
 40
4.0
 40
4.0
 40
4.0
 40
4.0
 10
10.54450141059028
 20
-6.5
 30
0.0
 10
10.54450141059028
 20
-6.524576822916666
 30
0.0
 10
10.52457682291667
 20
-6.544501410590278
 30
0.0
 10
10.5
 20
-6.544501410590278
 30
0.0
 10
10.47542317708333
 20
-6.544501410590278
 30
0.0
 10
10.45549858940972
 20
-6.524576822916666
 30
0.0
 10
10.45549858940972
 20
-6.5
 30
0.0
 10
10.45549858940972
 20
-6.475423177083333
 30
0.0
 10
10.47542317708333
 20
-6.455498589409721
 30
0.0
 10
10.5
 20
-6.455498589409721
 30
0.0
 10
10.52457682291667
 20
-6.455498589409721
 30
0.0
 10
10.54450141059028
 20
-6.475423177083333
 30
0.0
 10
10.54450141059028
 20
-6.5
 30
0.0
  0
POLYLINE
  5
5D
330
1F
100
AcDbEntity
  8
Layer 1
370
     0
100
AcDb2dPolyline
 66
     1
 10
0.0
 20
0.0
 30
0.0
  0
VERTEX
  5
5E
330
5D
100
AcDbEntity
  8
Layer 1
370
     0
100
AcDbVertex
100
AcDb2dVertex
 10
5.5
 20
-8.5
 30
0.0
  0
VERTEX
  5
5F
330
5D
100
AcDbEntity
  8
Layer 1
370
     0
100
AcDbVertex
100
AcDb2dVertex
 10
5.375
 20
-8.5
 30
0.0
  0
VERTEX
  5
60
330
5D
100
AcDbEntity
  8
Layer 1
370
     0
100
AcDbVertex
100
AcDb2dVertex
 10
5.375
 20
-3.5
 30
0.0
  0
VERTEX
  5
61
330
5D
100
AcDbEntity
  8
Layer 1
370
     0
100
AcDbVertex
100
AcDb2dVertex
 10
5.5
 20
-3.5
 30
0.0
  0
VERTEX
  5
62
330
5D
100
AcDbEntity
  8
Layer 1
370
     0
100
AcDbVertex
100
AcDb2dVertex
 10
5.5
 20
-8.5
 30
0.0
  0
SEQEND
  5
63
330
5D
100
AcDbEntity
  8
Layer 1
370
     0
  0
POLYLINE
  5
64
330
1F
100
AcDbEntity
  8
Layer 1
370
     0
100
AcDb2dPolyline
 66
     1
 10
0.0
 20
0.0
 30
0.0
  0
VERTEX
  5
65
330
64
100
AcDbEntity
  8
Layer 1
370
     0
100
AcDbVertex
100
AcDb2dVertex
 10
5.75
 20
-8.5
 30
0.0
  0
VERTEX
  5
66
330
64
100
AcDbEntity
  8
Layer 1
370
     0
100
AcDbVertex
100
AcDb2dVertex
 10
5.625
 20
-8.5
 30
0.0
  0
VERTEX
  5
67
330
64
100
AcDbEntity
  8
Layer 1
370
     0
100
AcDbVertex
100
AcDb2dVertex
 10
5.625
 20
-3.5
 30
0.0
  0
VERTEX
  5
68
330
64
100
AcDbEntity
  8
Layer 1
370
     0
100
AcDbVertex
100
AcDb2dVertex
 10
5.75
 20
-3.5
 30
0.0
  0
VERTEX
  5
69
330
64
100
AcDbEntity
  8
Layer 1
370
     0
100
AcDbVertex
100
AcDb2dVertex
 10
5.75
 20
-8.5
 30
0.0
  0
SEQEND
  5
6A
330
64
100
AcDbEntity
  8
Layer 1
370
     0
  0
POLYLINE
  5
6B
330
1F
100
AcDbEntity
  8
Layer 1
370
     0
100
AcDb2dPolyline
 66
     1
 10
0.0
 20
0.0
 30
0.0
  0
VERTEX
  5
6C
330
6B
100
AcDbEntity
  8
Layer 1
370
     0
100
AcDbVertex
100
AcDb2dVertex
 10
8.5
 20
-2.875
 30
0.0
  0
VERTEX
  5
6D
330
6B
100
AcDbEntity
  8
Layer 1
370
     0
100
AcDbVertex
100
AcDb2dVertex
 10
6.0
 20
-2.875
 30
0.0
  0
VERTEX
  5
6E
330
6B
100
AcDbEntity
  8
Layer 1
370
     0
100
AcDbVertex
100
AcDb2dVertex
 10
6.0
 20
-2.75
 30
0.0
  0
VERTEX
  5
6F
330
6B
100
AcDbEntity
  8
Layer 1
370
     0
100
AcDbVertex
100
AcDb2dVertex
 10
8.5
 20
-2.75
 30
0.0
  0
VERTEX
  5
70
330
6B
100
AcDbEntity
  8
Layer 1
370
     0
100
AcDbVertex
100
AcDb2dVertex
 10
8.5
 20
-2.875
 30
0.0
  0
SEQEND
  5
71
330
6B
100
AcDbEntity
  8
Layer 1
370
     0
  0
POLYLINE
  5
72
330
1F
100
AcDbEntity
  8
Layer 1
370
     0
100
AcDb2dPolyline
 66
     1
 10
0.0
 20
0.0
 30
0.0
  0
VERTEX
  5
73
330
72
100
AcDbEntity
  8
Layer 1
370
     0
100
AcDbVertex
100
AcDb2dVertex
 10
8.5
 20
-2.625
 30
0.0
  0
VERTEX
  5
74
330
72
100
AcDbEntity
  8
Layer 1
370
     0
100
AcDbVertex
100
AcDb2dVertex
 10
6.0
 20
-2.625
 30
0.0
  0
VERTEX
  5
75
330
72
100
AcDbEntity
  8
Layer 1
370
     0
100
AcDbVertex
100
AcDb2dVertex
 10
6.0
 20
-2.5
 30
0.0
  0
VERTEX
  5
76
330
72
100
AcDbEntity
  8
Layer 1
370
     0
100
AcDbVertex
100
AcDb2dVertex
 10
8.5
 20
-2.5
 30
0.0
  0
VERTEX
  5
77
330
72
100
AcDbEntity
  8
Layer 1
370
     0
100
AcDbVertex
100
AcDb2dVertex
 10
8.5
 20
-2.625
 30
0.0
  0
SEQEND
  5
78
330
72
100
AcDbEntity
  8
Layer 1
370
     0
  0
POLYLINE
  5
79
330
1F
100
AcDbEntity
  8
Layer 1
370
     0
100
AcDb2dPolyline
 66
     1
 10
0.0
 20
0.0
 30
0.0
  0
VERTEX
  5
7A
330
79
100
AcDbEntity
  8
Layer 1
370
     0
100
AcDbVertex
100
AcDb2dVertex
 10
8.5
 20
-9.5
 30
0.0
  0
VERTEX
  5
7B
330
79
100
AcDbEntity
  8
Layer 1
370
     0
100
AcDbVertex
100
AcDb2dVertex
 10
6.0
 20
-9.5
 30
0.0
  0
VERTEX
  5
7C
330
79
100
AcDbEntity
  8
Layer 1
370
     0
100
AcDbVertex
100
AcDb2dVertex
 10
6.0
 20
-9.375
 30
0.0
  0
VERTEX
  5
7D
330
79
100
AcDbEntity
  8
Layer 1
370
     0
100
AcDbVertex
100
AcDb2dVertex
 10
8.5
 20
-9.375
 30
0.0
  0
VERTEX
  5
7E
330
79
100
AcDbEntity
  8
Layer 1
370
     0
100
AcDbVertex
100
AcDb2dVertex
 10
8.5
 20
-9.5
 30
0.0
  0
SEQEND
  5
7F
330
79
100
AcDbEntity
  8
Layer 1
370
     0
  0
POLYLINE
  5
80
330
1F
100
AcDbEntity
  8
Layer 1
370
     0
100
AcDb2dPolyline
 66
     1
 10
0.0
 20
0.0
 30
0.0
  0
VERTEX
  5
81
330
80
100
AcDbEntity
  8
Layer 1
370
     0
100
AcDbVertex
100
AcDb2dVertex
 10
8.5
 20
-9.25
 30
0.0
  0
VERTEX
  5
82
330
80
100
AcDbEntity
  8
Layer 1
370
     0
100
AcDbVertex
100
AcDb2dVertex
 10
6.0
 20
-9.25
 30
0.0
  0
VERTEX
  5
83
330
80
100
AcDbEntity
  8
Layer 1
370
     0
100
AcDbVertex
100
AcDb2dVertex
 10
6.0
 20
-9.125
 30
0.0
  0
VERTEX
  5
84
330
80
100
AcDbEntity
  8
Layer 1
370
     0
100
AcDbVertex
100
AcDb2dVertex
 10
8.5
 20
-9.125
 30
0.0
  0
VERTEX
  5
85
330
80
100
AcDbEntity
  8
Layer 1
370
     0
100
AcDbVertex
100
AcDb2dVertex
 10
8.5
 20
-9.25
 30
0.0
  0
SEQEND
  5
86
330
80
100
AcDbEntity
  8
Layer 1
370
     0
  0
SPLINE
  5
87
330
1F
100
AcDbEntity
  8
Layer 1
370
     0
100
AcDbSpline
210
0.0
220
0.0
230
1.0
 70
    11
 71
     3
 72
    17
 73
    13
 74
     0
 42
0.0000000001
 43
0.0000000001
 40
0.0
 40
0.0
 40
0.0
 40
0.0
 40
1.0
 40
1.0
 40
1.0
 40
2.0
 40
2.0
 40
2.0
 40
3.0
 40
3.0
 40
3.0
 40
4.0
 40
4.0
 40
4.0
 40
4.0
 10
6.044501410590278
 20
-11.375
 30
0.0
 10
6.044501410590278
 20
-11.39957682291667
 30
0.0
 10
6.024576822916666
 20
-11.41950141059028
 30
0.0
 10
6.0
 20
-11.41950141059028
 30
0.0
 10
5.975423177083333
 20
-11.41950141059028
 30
0.0
 10
5.955498589409722
 20
-11.39957682291667
 30
0.0
 10
5.955498589409722
 20
-11.375
 30
0.0
 10
5.955498589409722
 20
-11.35042317708333
 30
0.0
 10
5.975423177083333
 20
-11.33049858940972
 30
0.0
 10
6.0
 20
-11.33049858940972
 30
0.0
 10
6.024576822916666
 20
-11.33049858940972
 30
0.0
 10
6.044501410590278
 20
-11.35042317708333
 30
0.0
 10
6.044501410590278
 20
-11.375
 30
0.0
  0
SPLINE
  5
88
330
1F
100
AcDbEntity
  8
Layer 1
370
     0
100
AcDbSpline
210
0.0
220
0.0
230
1.0
 70
    11
 71
     3
 72
    17
 73
    13
 74
     0
 42
0.0000000001
 43
0.0000000001
 40
0.0
 40
0.0
 40
0.0
 40
0.0
 40
1.0
 40
1.0
 40
1.0
 40
2.0
 40
2.0
 40
2.0
 40
3.0
 40
3.0
 40
3.0
 40
4.0
 40
4.0
 40
4.0
 40
4.0
 10
6.044501410590278
 20
-0.625
 30
0.0
 10
6.044501410590278
 20
-0.6495768229166666
 30
0.0
 10
6.024576822916666
 20
-0.6695014105902778
 30
0.0
 10
6.0
 20
-0.6695014105902778
 30
0.0
 10
5.975423177083333
 20
-0.6695014105902778
 30
0.0
 10
5.955498589409722
 20
-0.6495768229166666
 30
0.0
 10
5.955498589409722
 20
-0.625
 30
0.0
 10
5.955498589409722
 20
-0.6004231770833333
 30
0.0
 10
5.975423177083333
 20
-0.5804985894097222
 30
0.0
 10
6.0
 20
-0.5804985894097222
 30
0.0
 10
6.024576822916666
 20
-0.5804985894097222
 30
0.0
 10
6.044501410590278
 20
-0.6004231770833333
 30
0.0
 10
6.044501410590278
 20
-0.625
 30
0.0
  0
SPLINE
  5
89
330
1F
100
AcDbEntity
  8
Layer 1
370
     0
100
AcDbSpline
210
0.0
220
0.0
230
1.0
 70
    11
 71
     3
 72
    17
 73
    13
 74
     0
 42
0.0000000001
 43
0.0000000001
 40
0.0
 40
0.0
 40
0.0
 40
0.0
 40
1.0
 40
1.0
 40
1.0
 40
2.0
 40
2.0
 40
2.0
 40
3.0
 40
3.0
 40
3.0
 40
4.0
 40
4.0
 40
4.0
 40
4.0
 10
0.6695014105902778
 20
-6.0
 30
0.0
 10
0.6695014105902778
 20
-6.024576822916666
 30
0.0
 10
0.6495768229166666
 20
-6.044501410590278
 30
0.0
 10
0.625
 20
-6.044501410590278
 30
0.0
 10
0.6004231770833333
 20
-6.044501410590278
 30
0.0
 10
0.5804985894097222
 20
-6.024576822916666
 30
0.0
 10
0.5804985894097222
 20
-6.0
 30
0.0
 10
0.5804985894097222
 20
-5.975423177083333
 30
0.0
 10
0.6004231770833333
 20
-5.955498589409722
 30
0.0
 10
0.625
 20
-5.955498589409722
 30
0.0
 10
0.6495768229166666
 20
-5.955498589409722
 30
0.0
 10
0.6695014105902778
 20
-5.975423177083333
 30
0.0
 10
0.6695014105902778
 20
-6.0
 30
0.0
  0
SPLINE
  5
8A
330
1F
100
AcDbEntity
  8
Layer 1
370
     0
100
AcDbSpline
210
0.0
220
0.0
230
1.0
 70
    11
 71
     3
 72
    17
 73
    13
 74
     0
 42
0.0000000001
 43
0.0000000001
 40
0.0
 40
0.0
 40
0.0
 40
0.0
 40
1.0
 40
1.0
 40
1.0
 40
2.0
 40
2.0
 40
2.0
 40
3.0
 40
3.0
 40
3.0
 40
4.0
 40
4.0
 40
4.0
 40
4.0
 10
11.41950141059028
 20
-6.0
 30
0.0
 10
11.41950141059028
 20
-6.024576822916666
 30
0.0
 10
11.39957682291667
 20
-6.044501410590278
 30
0.0
 10
11.375
 20
-6.044501410590278
 30
0.0
 10
11.35042317708333
 20
-6.044501410590278
 30
0.0
 10
11.33049858940972
 20
-6.024576822916666
 30
0.0
 10
11.33049858940972
 20
-6.0
 30
0.0
 10
11.33049858940972
 20
-5.975423177083333
 30
0.0
 10
11.35042317708333
 20
-5.955498589409722
 30
0.0
 10
11.375
 20
-5.955498589409722
 30
0.0
 10
11.39957682291667
 20
-5.955498589409722
 30
0.0
 10
11.41950141059028
 20
-5.975423177083333
 30
0.0
 10
11.41950141059028
 20
-6.0
 30
0.0
  0
SPLINE
  5
8B
330
1F
100
AcDbEntity
  8
Layer 1
370
     0
100
AcDbSpline
210
0.0
220
0.0
230
1.0
 70
    11
 71
     3
 72
    17
 73
    13
 74
     0
 42
0.0000000001
 43
0.0000000001
 40
0.0
 40
0.0
 40
0.0
 40
0.0
 40
1.0
 40
1.0
 40
1.0
 40
2.0
 40
2.0
 40
2.0
 40
3.0
 40
3.0
 40
3.0
 40
4.0
 40
4.0
 40
4.0
 40
4.0
 10
9.669501410590277
 20
-10.0
 30
0.0
 10
9.669501410590277
 20
-10.02457682291667
 30
0.0
 10
9.649576822916666
 20
-10.04450141059028
 30
0.0
 10
9.625
 20
-10.04450141059028
 30
0.0
 10
9.600423177083332
 20
-10.04450141059028
 30
0.0
 10
9.580498589409721
 20
-10.02457682291667
 30
0.0
 10
9.580498589409721
 20
-10.0
 30
0.0
 10
9.580498589409721
 20
-9.975423177083332
 30
0.0
 10
9.600423177083332
 20
-9.955498589409721
 30
0.0
 10
9.625
 20
-9.955498589409721
 30
0.0
 10
9.649576822916666
 20
-9.955498589409721
 30
0.0
 10
9.669501410590277
 20
-9.975423177083332
 30
0.0
 10
9.669501410590277
 20
-10.0
 30
0.0
  0
SPLINE
  5
8C
330
1F
100
AcDbEntity
  8
Layer 1
370
     0
100
AcDbSpline
210
0.0
220
0.0
230
1.0
 70
    11
 71
     3
 72
    17
 73
    13
 74
     0
 42
0.0000000001
 43
0.0000000001
 40
0.0
 40
0.0
 40
0.0
 40
0.0
 40
1.0
 40
1.0
 40
1.0
 40
2.0
 40
2.0
 40
2.0
 40
3.0
 40
3.0
 40
3.0
 40
4.0
 40
4.0
 40
4.0
 40
4.0
 10
10.04450141059028
 20
-9.625
 30
0.0
 10
10.04450141059028
 20
-9.649576822916666
 30
0.0
 10
10.02457682291667
 20
-9.669501410590277
 30
0.0
 10
10.0
 20
-9.669501410590277
 30
0.0
 10
9.975423177083332
 20
-9.669501410590277
 30
0.0
 10
9.955498589409721
 20
-9.649576822916666
 30
0.0
 10
9.955498589409721
 20
-9.625
 30
0.0
 10
9.955498589409721
 20
-9.600423177083332
 30
0.0
 10
9.975423177083332
 20
-9.580498589409721
 30
0.0
 10
10.0
 20
-9.580498589409721
 30
0.0
 10
10.02457682291667
 20
-9.580498589409721
 30
0.0
 10
10.04450141059028
 20
-9.600423177083332
 30
0.0
 10
10.04450141059028
 20
-9.625
 30
0.0
  0
SPLINE
  5
8D
330
1F
100
AcDbEntity
  8
Layer 1
370
     0
100
AcDbSpline
210
0.0
220
0.0
230
1.0
 70
    11
 71
     3
 72
    17
 73
    13
 74
     0
 42
0.0000000001
 43
0.0000000001
 40
0.0
 40
0.0
 40
0.0
 40
0.0
 40
1.0
 40
1.0
 40
1.0
 40
2.0
 40
2.0
 40
2.0
 40
3.0
 40
3.0
 40
3.0
 40
4.0
 40
4.0
 40
4.0
 40
4.0
 10
2.419501410590278
 20
-10.0
 30
0.0
 10
2.419501410590278
 20
-10.02457682291667
 30
0.0
 10
2.399576822916667
 20
-10.04450141059028
 30
0.0
 10
2.375
 20
-10.04450141059028
 30
0.0
 10
2.350423177083333
 20
-10.04450141059028
 30
0.0
 10
2.330498589409722
 20
-10.02457682291667
 30
0.0
 10
2.330498589409722
 20
-10.0
 30
0.0
 10
2.330498589409722
 20
-9.975423177083332
 30
0.0
 10
2.350423177083333
 20
-9.955498589409721
 30
0.0
 10
2.375
 20
-9.955498589409721
 30
0.0
 10
2.399576822916667
 20
-9.955498589409721
 30
0.0
 10
2.419501410590278
 20
-9.975423177083332
 30
0.0
 10
2.419501410590278
 20
-10.0
 30
0.0
  0
SPLINE
  5
8E
330
1F
100
AcDbEntity
  8
Layer 1
370
     0
100
AcDbSpline
210
0.0
220
0.0
230
1.0
 70
    11
 71
     3
 72
    17
 73
    13
 74
     0
 42
0.0000000001
 43
0.0000000001
 40
0.0
 40
0.0
 40
0.0
 40
0.0
 40
1.0
 40
1.0
 40
1.0
 40
2.0
 40
2.0
 40
2.0
 40
3.0
 40
3.0
 40
3.0
 40
4.0
 40
4.0
 40
4.0
 40
4.0
 10
2.044501410590278
 20
-9.625
 30
0.0
 10
2.044501410590278
 20
-9.649576822916666
 30
0.0
 10
2.024576822916667
 20
-9.669501410590277
 30
0.0
 10
2.0
 20
-9.669501410590277
 30
0.0
 10
1.975423177083333
 20
-9.669501410590277
 30
0.0
 10
1.955498589409722
 20
-9.649576822916666
 30
0.0
 10
1.955498589409722
 20
-9.625
 30
0.0
 10
1.955498589409722
 20
-9.600423177083332
 30
0.0
 10
1.975423177083333
 20
-9.580498589409721
 30
0.0
 10
2.0
 20
-9.580498589409721
 30
0.0
 10
2.024576822916667
 20
-9.580498589409721
 30
0.0
 10
2.044501410590278
 20
-9.600423177083332
 30
0.0
 10
2.044501410590278
 20
-9.625
 30
0.0
  0
SPLINE
  5
8F
330
1F
100
AcDbEntity
  8
Layer 1
370
     0
100
AcDbSpline
210
0.0
220
0.0
230
1.0
 70
    11
 71
     3
 72
    17
 73
    13
 74
     0
 42
0.0000000001
 43
0.0000000001
 40
0.0
 40
0.0
 40
0.0
 40
0.0
 40
1.0
 40
1.0
 40
1.0
 40
2.0
 40
2.0
 40
2.0
 40
3.0
 40
3.0
 40
3.0
 40
4.0
 40
4.0
 40
4.0
 40
4.0
 10
9.669501410590277
 20
-2.0
 30
0.0
 10
9.669501410590277
 20
-2.024576822916667
 30
0.0
 10
9.649576822916666
 20
-2.044501410590278
 30
0.0
 10
9.625
 20
-2.044501410590278
 30
0.0
 10
9.600423177083332
 20
-2.044501410590278
 30
0.0
 10
9.580498589409721
 20
-2.024576822916667
 30
0.0
 10
9.580498589409721
 20
-2.0
 30
0.0
 10
9.580498589409721
 20
-1.975423177083333
 30
0.0
 10
9.600423177083332
 20
-1.955498589409722
 30
0.0
 10
9.625
 20
-1.955498589409722
 30
0.0
 10
9.649576822916666
 20
-1.955498589409722
 30
0.0
 10
9.669501410590277
 20
-1.975423177083333
 30
0.0
 10
9.669501410590277
 20
-2.0
 30
0.0
  0
SPLINE
  5
90
330
1F
100
AcDbEntity
  8
Layer 1
370
     0
100
AcDbSpline
210
0.0
220
0.0
230
1.0
 70
    11
 71
     3
 72
    17
 73
    13
 74
     0
 42
0.0000000001
 43
0.0000000001
 40
0.0
 40
0.0
 40
0.0
 40
0.0
 40
1.0
 40
1.0
 40
1.0
 40
2.0
 40
2.0
 40
2.0
 40
3.0
 40
3.0
 40
3.0
 40
4.0
 40
4.0
 40
4.0
 40
4.0
 10
10.04450141059028
 20
-2.375
 30
0.0
 10
10.04450141059028
 20
-2.399576822916667
 30
0.0
 10
10.02457682291667
 20
-2.419501410590278
 30
0.0
 10
10.0
 20
-2.419501410590278
 30
0.0
 10
9.975423177083332
 20
-2.419501410590278
 30
0.0
 10
9.955498589409721
 20
-2.399576822916667
 30
0.0
 10
9.955498589409721
 20
-2.375
 30
0.0
 10
9.955498589409721
 20
-2.350423177083333
 30
0.0
 10
9.975423177083332
 20
-2.330498589409722
 30
0.0
 10
10.0
 20
-2.330498589409722
 30
0.0
 10
10.02457682291667
 20
-2.330498589409722
 30
0.0
 10
10.04450141059028
 20
-2.350423177083333
 30
0.0
 10
10.04450141059028
 20
-2.375
 30
0.0
  0
SPLINE
  5
91
330
1F
100
AcDbEntity
  8
Layer 1
370
     0
100
AcDbSpline
210
0.0
220
0.0
230
1.0
 70
    11
 71
     3
 72
    17
 73
    13
 74
     0
 42
0.0000000001
 43
0.0000000001
 40
0.0
 40
0.0
 40
0.0
 40
0.0
 40
1.0
 40
1.0
 40
1.0
 40
2.0
 40
2.0
 40
2.0
 40
3.0
 40
3.0
 40
3.0
 40
4.0
 40
4.0
 40
4.0
 40
4.0
 10
2.419501410590278
 20
-2.0
 30
0.0
 10
2.419501410590278
 20
-2.024576822916667
 30
0.0
 10
2.399576822916667
 20
-2.044501410590278
 30
0.0
 10
2.375
 20
-2.044501410590278
 30
0.0
 10
2.350423177083333
 20
-2.044501410590278
 30
0.0
 10
2.330498589409722
 20
-2.024576822916667
 30
0.0
 10
2.330498589409722
 20
-2.0
 30
0.0
 10
2.330498589409722
 20
-1.975423177083333
 30
0.0
 10
2.350423177083333
 20
-1.955498589409722
 30
0.0
 10
2.375
 20
-1.955498589409722
 30
0.0
 10
2.399576822916667
 20
-1.955498589409722
 30
0.0
 10
2.419501410590278
 20
-1.975423177083333
 30
0.0
 10
2.419501410590278
 20
-2.0
 30
0.0
  0
SPLINE
  5
92
330
1F
100
AcDbEntity
  8
Layer 1
370
     0
100
AcDbSpline
210
0.0
220
0.0
230
1.0
 70
    11
 71
     3
 72
    17
 73
    13
 74
     0
 42
0.0000000001
 43
0.0000000001
 40
0.0
 40
0.0
 40
0.0
 40
0.0
 40
1.0
 40
1.0
 40
1.0
 40
2.0
 40
2.0
 40
2.0
 40
3.0
 40
3.0
 40
3.0
 40
4.0
 40
4.0
 40
4.0
 40
4.0
 10
2.044501410590278
 20
-2.375
 30
0.0
 10
2.044501410590278
 20
-2.399576822916667
 30
0.0
 10
2.024576822916667
 20
-2.419501410590278
 30
0.0
 10
2.0
 20
-2.419501410590278
 30
0.0
 10
1.975423177083333
 20
-2.419501410590278
 30
0.0
 10
1.955498589409722
 20
-2.399576822916667
 30
0.0
 10
1.955498589409722
 20
-2.375
 30
0.0
 10
1.955498589409722
 20
-2.350423177083333
 30
0.0
 10
1.975423177083333
 20
-2.330498589409722
 30
0.0
 10
2.0
 20
-2.330498589409722
 30
0.0
 10
2.024576822916667
 20
-2.330498589409722
 30
0.0
 10
2.044501410590278
 20
-2.350423177083333
 30
0.0
 10
2.044501410590278
 20
-2.375
 30
0.0
  0
SPLINE
  5
93
330
1F
100
AcDbEntity
  8
Layer 1
370
     0
100
AcDbSpline
210
0.0
220
0.0
230
1.0
 70
    11
 71
     3
 72
    17
 73
    13
 74
     0
 42
0.0000000001
 43
0.0000000001
 40
0.0
 40
0.0
 40
0.0
 40
0.0
 40
1.0
 40
1.0
 40
1.0
 40
2.0
 40
2.0
 40
2.0
 40
3.0
 40
3.0
 40
3.0
 40
4.0
 40
4.0
 40
4.0
 40
4.0
 10
5.294501410590278
 20
-1.0
 30
0.0
 10
5.294501410590278
 20
-1.024576822916667
 30
0.0
 10
5.274576822916666
 20
-1.044501410590278
 30
0.0
 10
5.25
 20
-1.044501410590278
 30
0.0
 10
5.225423177083333
 20
-1.044501410590278
 30
0.0
 10
5.205498589409722
 20
-1.024576822916667
 30
0.0
 10
5.205498589409722
 20
-1.0
 30
0.0
 10
5.205498589409722
 20
-0.9754231770833333
 30
0.0
 10
5.225423177083333
 20
-0.9554985894097222
 30
0.0
 10
5.25
 20
-0.9554985894097222
 30
0.0
 10
5.274576822916666
 20
-0.9554985894097222
 30
0.0
 10
5.294501410590278
 20
-0.9754231770833333
 30
0.0
 10
5.294501410590278
 20
-1.0
 30
0.0
  0
SPLINE
  5
94
330
1F
100
AcDbEntity
  8
Layer 1
370
     0
100
AcDbSpline
210
0.0
220
0.0
230
1.0
 70
    11
 71
     3
 72
    17
 73
    13
 74
     0
 42
0.0000000001
 43
0.0000000001
 40
0.0
 40
0.0
 40
0.0
 40
0.0
 40
1.0
 40
1.0
 40
1.0
 40
2.0
 40
2.0
 40
2.0
 40
3.0
 40
3.0
 40
3.0
 40
4.0
 40
4.0
 40
4.0
 40
4.0
 10
6.794501410590278
 20
-1.0
 30
0.0
 10
6.794501410590278
 20
-1.024576822916667
 30
0.0
 10
6.774576822916666
 20
-1.044501410590278
 30
0.0
 10
6.75
 20
-1.044501410590278
 30
0.0
 10
6.725423177083333
 20
-1.044501410590278
 30
0.0
 10
6.705498589409721
 20
-1.024576822916667
 30
0.0
 10
6.705498589409721
 20
-1.0
 30
0.0
 10
6.705498589409721
 20
-0.9754231770833333
 30
0.0
 10
6.725423177083333
 20
-0.9554985894097222
 30
0.0
 10
6.75
 20
-0.9554985894097222
 30
0.0
 10
6.774576822916666
 20
-0.9554985894097222
 30
0.0
 10
6.794501410590278
 20
-0.9754231770833333
 30
0.0
 10
6.794501410590278
 20
-1.0
 30
0.0
  0
SPLINE
  5
95
330
1F
100
AcDbEntity
  8
Layer 1
370
     0
100
AcDbSpline
210
0.0
220
0.0
230
1.0
 70
    11
 71
     3
 72
    17
 73
    13
 74
     0
 42
0.0000000001
 43
0.0000000001
 40
0.0
 40
0.0
 40
0.0
 40
0.0
 40
1.0
 40
1.0
 40
1.0
 40
2.0
 40
2.0
 40
2.0
 40
3.0
 40
3.0
 40
3.0
 40
4.0
 40
4.0
 40
4.0
 40
4.0
 10
5.294501410590278
 20
-1.5
 30
0.0
 10
5.294501410590278
 20
-1.524576822916667
 30
0.0
 10
5.274576822916666
 20
-1.544501410590278
 30
0.0
 10
5.25
 20
-1.544501410590278
 30
0.0
 10
5.225423177083333
 20
-1.544501410590278
 30
0.0
 10
5.205498589409722
 20
-1.524576822916667
 30
0.0
 10
5.205498589409722
 20
-1.5
 30
0.0
 10
5.205498589409722
 20
-1.475423177083333
 30
0.0
 10
5.225423177083333
 20
-1.455498589409722
 30
0.0
 10
5.25
 20
-1.455498589409722
 30
0.0
 10
5.274576822916666
 20
-1.455498589409722
 30
0.0
 10
5.294501410590278
 20
-1.475423177083333
 30
0.0
 10
5.294501410590278
 20
-1.5
 30
0.0
  0
SPLINE
  5
96
330
1F
100
AcDbEntity
  8
Layer 1
370
     0
100
AcDbSpline
210
0.0
220
0.0
230
1.0
 70
    11
 71
     3
 72
    17
 73
    13
 74
     0
 42
0.0000000001
 43
0.0000000001
 40
0.0
 40
0.0
 40
0.0
 40
0.0
 40
1.0
 40
1.0
 40
1.0
 40
2.0
 40
2.0
 40
2.0
 40
3.0
 40
3.0
 40
3.0
 40
4.0
 40
4.0
 40
4.0
 40
4.0
 10
6.794501410590278
 20
-1.5
 30
0.0
 10
6.794501410590278
 20
-1.524576822916667
 30
0.0
 10
6.774576822916666
 20
-1.544501410590278
 30
0.0
 10
6.75
 20
-1.544501410590278
 30
0.0
 10
6.725423177083333
 20
-1.544501410590278
 30
0.0
 10
6.705498589409721
 20
-1.524576822916667
 30
0.0
 10
6.705498589409721
 20
-1.5
 30
0.0
 10
6.705498589409721
 20
-1.475423177083333
 30
0.0
 10
6.725423177083333
 20
-1.455498589409722
 30
0.0
 10
6.75
 20
-1.455498589409722
 30
0.0
 10
6.774576822916666
 20
-1.455498589409722
 30
0.0
 10
6.794501410590278
 20
-1.475423177083333
 30
0.0
 10
6.794501410590278
 20
-1.5
 30
0.0
  0
SPLINE
  5
97
330
1F
100
AcDbEntity
  8
Layer 1
370
     0
100
AcDbSpline
210
0.0
220
0.0
230
1.0
 70
    11
 71
     3
 72
    17
 73
    13
 74
     0
 42
0.0000000001
 43
0.0000000001
 40
0.0
 40
0.0
 40
0.0
 40
0.0
 40
1.0
 40
1.0
 40
1.0
 40
2.0
 40
2.0
 40
2.0
 40
3.0
 40
3.0
 40
3.0
 40
4.0
 40
4.0
 40
4.0
 40
4.0
 10
5.294501410590278
 20
-2.0
 30
0.0
 10
5.294501410590278
 20
-2.024576822916667
 30
0.0
 10
5.274576822916666
 20
-2.044501410590278
 30
0.0
 10
5.25
 20
-2.044501410590278
 30
0.0
 10
5.225423177083333
 20
-2.044501410590278
 30
0.0
 10
5.205498589409722
 20
-2.024576822916667
 30
0.0
 10
5.205498589409722
 20
-2.0
 30
0.0
 10
5.205498589409722
 20
-1.975423177083333
 30
0.0
 10
5.225423177083333
 20
-1.955498589409722
 30
0.0
 10
5.25
 20
-1.955498589409722
 30
0.0
 10
5.274576822916666
 20
-1.955498589409722
 30
0.0
 10
5.294501410590278
 20
-1.975423177083333
 30
0.0
 10
5.294501410590278
 20
-2.0
 30
0.0
  0
SPLINE
  5
98
330
1F
100
AcDbEntity
  8
Layer 1
370
     0
100
AcDbSpline
210
0.0
220
0.0
230
1.0
 70
    11
 71
     3
 72
    17
 73
    13
 74
     0
 42
0.0000000001
 43
0.0000000001
 40
0.0
 40
0.0
 40
0.0
 40
0.0
 40
1.0
 40
1.0
 40
1.0
 40
2.0
 40
2.0
 40
2.0
 40
3.0
 40
3.0
 40
3.0
 40
4.0
 40
4.0
 40
4.0
 40
4.0
 10
6.794501410590278
 20
-2.0
 30
0.0
 10
6.794501410590278
 20
-2.024576822916667
 30
0.0
 10
6.774576822916666
 20
-2.044501410590278
 30
0.0
 10
6.75
 20
-2.044501410590278
 30
0.0
 10
6.725423177083333
 20
-2.044501410590278
 30
0.0
 10
6.705498589409721
 20
-2.024576822916667
 30
0.0
 10
6.705498589409721
 20
-2.0
 30
0.0
 10
6.705498589409721
 20
-1.975423177083333
 30
0.0
 10
6.725423177083333
 20
-1.955498589409722
 30
0.0
 10
6.75
 20
-1.955498589409722
 30
0.0
 10
6.774576822916666
 20
-1.955498589409722
 30
0.0
 10
6.794501410590278
 20
-1.975423177083333
 30
0.0
 10
6.794501410590278
 20
-2.0
 30
0.0
  0
SPLINE
  5
99
330
1F
100
AcDbEntity
  8
Layer 1
370
     0
100
AcDbSpline
210
0.0
220
0.0
230
1.0
 70
    11
 71
     3
 72
    17
 73
    13
 74
     0
 42
0.0000000001
 43
0.0000000001
 40
0.0
 40
0.0
 40
0.0
 40
0.0
 40
1.0
 40
1.0
 40
1.0
 40
2.0
 40
2.0
 40
2.0
 40
3.0
 40
3.0
 40
3.0
 40
4.0
 40
4.0
 40
4.0
 40
4.0
 10
5.794501410590278
 20
-1.0
 30
0.0
 10
5.794501410590278
 20
-1.024576822916667
 30
0.0
 10
5.774576822916666
 20
-1.044501410590278
 30
0.0
 10
5.75
 20
-1.044501410590278
 30
0.0
 10
5.725423177083333
 20
-1.044501410590278
 30
0.0
 10
5.705498589409722
 20
-1.024576822916667
 30
0.0
 10
5.705498589409722
 20
-1.0
 30
0.0
 10
5.705498589409722
 20
-0.9754231770833333
 30
0.0
 10
5.725423177083333
 20
-0.9554985894097222
 30
0.0
 10
5.75
 20
-0.9554985894097222
 30
0.0
 10
5.774576822916666
 20
-0.9554985894097222
 30
0.0
 10
5.794501410590278
 20
-0.9754231770833333
 30
0.0
 10
5.794501410590278
 20
-1.0
 30
0.0
  0
SPLINE
  5
9A
330
1F
100
AcDbEntity
  8
Layer 1
370
     0
100
AcDbSpline
210
0.0
220
0.0
230
1.0
 70
    11
 71
     3
 72
    17
 73
    13
 74
     0
 42
0.0000000001
 43
0.0000000001
 40
0.0
 40
0.0
 40
0.0
 40
0.0
 40
1.0
 40
1.0
 40
1.0
 40
2.0
 40
2.0
 40
2.0
 40
3.0
 40
3.0
 40
3.0
 40
4.0
 40
4.0
 40
4.0
 40
4.0
 10
5.794501410590278
 20
-1.5
 30
0.0
 10
5.794501410590278
 20
-1.524576822916667
 30
0.0
 10
5.774576822916666
 20
-1.544501410590278
 30
0.0
 10
5.75
 20
-1.544501410590278
 30
0.0
 10
5.725423177083333
 20
-1.544501410590278
 30
0.0
 10
5.705498589409722
 20
-1.524576822916667
 30
0.0
 10
5.705498589409722
 20
-1.5
 30
0.0
 10
5.705498589409722
 20
-1.475423177083333
 30
0.0
 10
5.725423177083333
 20
-1.455498589409722
 30
0.0
 10
5.75
 20
-1.455498589409722
 30
0.0
 10
5.774576822916666
 20
-1.455498589409722
 30
0.0
 10
5.794501410590278
 20
-1.475423177083333
 30
0.0
 10
5.794501410590278
 20
-1.5
 30
0.0
  0
SPLINE
  5
9B
330
1F
100
AcDbEntity
  8
Layer 1
370
     0
100
AcDbSpline
210
0.0
220
0.0
230
1.0
 70
    11
 71
     3
 72
    17
 73
    13
 74
     0
 42
0.0000000001
 43
0.0000000001
 40
0.0
 40
0.0
 40
0.0
 40
0.0
 40
1.0
 40
1.0
 40
1.0
 40
2.0
 40
2.0
 40
2.0
 40
3.0
 40
3.0
 40
3.0
 40
4.0
 40
4.0
 40
4.0
 40
4.0
 10
5.794501410590278
 20
-2.0
 30
0.0
 10
5.794501410590278
 20
-2.024576822916667
 30
0.0
 10
5.774576822916666
 20
-2.044501410590278
 30
0.0
 10
5.75
 20
-2.044501410590278
 30
0.0
 10
5.725423177083333
 20
-2.044501410590278
 30
0.0
 10
5.705498589409722
 20
-2.024576822916667
 30
0.0
 10
5.705498589409722
 20
-2.0
 30
0.0
 10
5.705498589409722
 20
-1.975423177083333
 30
0.0
 10
5.725423177083333
 20
-1.955498589409722
 30
0.0
 10
5.75
 20
-1.955498589409722
 30
0.0
 10
5.774576822916666
 20
-1.955498589409722
 30
0.0
 10
5.794501410590278
 20
-1.975423177083333
 30
0.0
 10
5.794501410590278
 20
-2.0
 30
0.0
  0
SPLINE
  5
9C
330
1F
100
AcDbEntity
  8
Layer 1
370
     0
100
AcDbSpline
210
0.0
220
0.0
230
1.0
 70
    11
 71
     3
 72
    17
 73
    13
 74
     0
 42
0.0000000001
 43
0.0000000001
 40
0.0
 40
0.0
 40
0.0
 40
0.0
 40
1.0
 40
1.0
 40
1.0
 40
2.0
 40
2.0
 40
2.0
 40
3.0
 40
3.0
 40
3.0
 40
4.0
 40
4.0
 40
4.0
 40
4.0
 10
6.294501410590278
 20
-1.0
 30
0.0
 10
6.294501410590278
 20
-1.024576822916667
 30
0.0
 10
6.274576822916666
 20
-1.044501410590278
 30
0.0
 10
6.25
 20
-1.044501410590278
 30
0.0
 10
6.225423177083333
 20
-1.044501410590278
 30
0.0
 10
6.205498589409722
 20
-1.024576822916667
 30
0.0
 10
6.205498589409722
 20
-1.0
 30
0.0
 10
6.205498589409722
 20
-0.9754231770833333
 30
0.0
 10
6.225423177083333
 20
-0.9554985894097222
 30
0.0
 10
6.25
 20
-0.9554985894097222
 30
0.0
 10
6.274576822916666
 20
-0.9554985894097222
 30
0.0
 10
6.294501410590278
 20
-0.9754231770833333
 30
0.0
 10
6.294501410590278
 20
-1.0
 30
0.0
  0
SPLINE
  5
9D
330
1F
100
AcDbEntity
  8
Layer 1
370
     0
100
AcDbSpline
210
0.0
220
0.0
230
1.0
 70
    11
 71
     3
 72
    17
 73
    13
 74
     0
 42
0.0000000001
 43
0.0000000001
 40
0.0
 40
0.0
 40
0.0
 40
0.0
 40
1.0
 40
1.0
 40
1.0
 40
2.0
 40
2.0
 40
2.0
 40
3.0
 40
3.0
 40
3.0
 40
4.0
 40
4.0
 40
4.0
 40
4.0
 10
6.294501410590278
 20
-1.5
 30
0.0
 10
6.294501410590278
 20
-1.524576822916667
 30
0.0
 10
6.274576822916666
 20
-1.544501410590278
 30
0.0
 10
6.25
 20
-1.544501410590278
 30
0.0
 10
6.225423177083333
 20
-1.544501410590278
 30
0.0
 10
6.205498589409722
 20
-1.524576822916667
 30
0.0
 10
6.205498589409722
 20
-1.5
 30
0.0
 10
6.205498589409722
 20
-1.475423177083333
 30
0.0
 10
6.225423177083333
 20
-1.455498589409722
 30
0.0
 10
6.25
 20
-1.455498589409722
 30
0.0
 10
6.274576822916666
 20
-1.455498589409722
 30
0.0
 10
6.294501410590278
 20
-1.475423177083333
 30
0.0
 10
6.294501410590278
 20
-1.5
 30
0.0
  0
SPLINE
  5
9E
330
1F
100
AcDbEntity
  8
Layer 1
370
     0
100
AcDbSpline
210
0.0
220
0.0
230
1.0
 70
    11
 71
     3
 72
    17
 73
    13
 74
     0
 42
0.0000000001
 43
0.0000000001
 40
0.0
 40
0.0
 40
0.0
 40
0.0
 40
1.0
 40
1.0
 40
1.0
 40
2.0
 40
2.0
 40
2.0
 40
3.0
 40
3.0
 40
3.0
 40
4.0
 40
4.0
 40
4.0
 40
4.0
 10
6.294501410590278
 20
-2.0
 30
0.0
 10
6.294501410590278
 20
-2.024576822916667
 30
0.0
 10
6.274576822916666
 20
-2.044501410590278
 30
0.0
 10
6.25
 20
-2.044501410590278
 30
0.0
 10
6.225423177083333
 20
-2.044501410590278
 30
0.0
 10
6.205498589409722
 20
-2.024576822916667
 30
0.0
 10
6.205498589409722
 20
-2.0
 30
0.0
 10
6.205498589409722
 20
-1.975423177083333
 30
0.0
 10
6.225423177083333
 20
-1.955498589409722
 30
0.0
 10
6.25
 20
-1.955498589409722
 30
0.0
 10
6.274576822916666
 20
-1.955498589409722
 30
0.0
 10
6.294501410590278
 20
-1.975423177083333
 30
0.0
 10
6.294501410590278
 20
-2.0
 30
0.0
  0
SPLINE
  5
9F
330
1F
100
AcDbEntity
  8
Layer 1
370
     0
100
AcDbSpline
210
0.0
220
0.0
230
1.0
 70
    11
 71
     3
 72
    17
 73
    13
 74
     0
 42
0.0000000001
 43
0.0000000001
 40
0.0
 40
0.0
 40
0.0
 40
0.0
 40
1.0
 40
1.0
 40
1.0
 40
2.0
 40
2.0
 40
2.0
 40
3.0
 40
3.0
 40
3.0
 40
4.0
 40
4.0
 40
4.0
 40
4.0
 10
5.294501410590278
 20
-10.0
 30
0.0
 10
5.294501410590278
 20
-10.02457682291667
 30
0.0
 10
5.274576822916666
 20
-10.04450141059028
 30
0.0
 10
5.25
 20
-10.04450141059028
 30
0.0
 10
5.225423177083333
 20
-10.04450141059028
 30
0.0
 10
5.205498589409722
 20
-10.02457682291667
 30
0.0
 10
5.205498589409722
 20
-10.0
 30
0.0
 10
5.205498589409722
 20
-9.975423177083332
 30
0.0
 10
5.225423177083333
 20
-9.955498589409721
 30
0.0
 10
5.25
 20
-9.955498589409721
 30
0.0
 10
5.274576822916666
 20
-9.955498589409721
 30
0.0
 10
5.294501410590278
 20
-9.975423177083332
 30
0.0
 10
5.294501410590278
 20
-10.0
 30
0.0
  0
SPLINE
  5
A0
330
1F
100
AcDbEntity
  8
Layer 1
370
     0
100
AcDbSpline
210
0.0
220
0.0
230
1.0
 70
    11
 71
     3
 72
    17
 73
    13
 74
     0
 42
0.0000000001
 43
0.0000000001
 40
0.0
 40
0.0
 40
0.0
 40
0.0
 40
1.0
 40
1.0
 40
1.0
 40
2.0
 40
2.0
 40
2.0
 40
3.0
 40
3.0
 40
3.0
 40
4.0
 40
4.0
 40
4.0
 40
4.0
 10
6.794501410590278
 20
-10.0
 30
0.0
 10
6.794501410590278
 20
-10.02457682291667
 30
0.0
 10
6.774576822916666
 20
-10.04450141059028
 30
0.0
 10
6.75
 20
-10.04450141059028
 30
0.0
 10
6.725423177083333
 20
-10.04450141059028
 30
0.0
 10
6.705498589409721
 20
-10.02457682291667
 30
0.0
 10
6.705498589409721
 20
-10.0
 30
0.0
 10
6.705498589409721
 20
-9.975423177083332
 30
0.0
 10
6.725423177083333
 20
-9.955498589409721
 30
0.0
 10
6.75
 20
-9.955498589409721
 30
0.0
 10
6.774576822916666
 20
-9.955498589409721
 30
0.0
 10
6.794501410590278
 20
-9.975423177083332
 30
0.0
 10
6.794501410590278
 20
-10.0
 30
0.0
  0
SPLINE
  5
A1
330
1F
100
AcDbEntity
  8
Layer 1
370
     0
100
AcDbSpline
210
0.0
220
0.0
230
1.0
 70
    11
 71
     3
 72
    17
 73
    13
 74
     0
 42
0.0000000001
 43
0.0000000001
 40
0.0
 40
0.0
 40
0.0
 40
0.0
 40
1.0
 40
1.0
 40
1.0
 40
2.0
 40
2.0
 40
2.0
 40
3.0
 40
3.0
 40
3.0
 40
4.0
 40
4.0
 40
4.0
 40
4.0
 10
5.294501410590278
 20
-10.5
 30
0.0
 10
5.294501410590278
 20
-10.52457682291667
 30
0.0
 10
5.274576822916666
 20
-10.54450141059028
 30
0.0
 10
5.25
 20
-10.54450141059028
 30
0.0
 10
5.225423177083333
 20
-10.54450141059028
 30
0.0
 10
5.205498589409722
 20
-10.52457682291667
 30
0.0
 10
5.205498589409722
 20
-10.5
 30
0.0
 10
5.205498589409722
 20
-10.47542317708333
 30
0.0
 10
5.225423177083333
 20
-10.45549858940972
 30
0.0
 10
5.25
 20
-10.45549858940972
 30
0.0
 10
5.274576822916666
 20
-10.45549858940972
 30
0.0
 10
5.294501410590278
 20
-10.47542317708333
 30
0.0
 10
5.294501410590278
 20
-10.5
 30
0.0
  0
SPLINE
  5
A2
330
1F
100
AcDbEntity
  8
Layer 1
370
     0
100
AcDbSpline
210
0.0
220
0.0
230
1.0
 70
    11
 71
     3
 72
    17
 73
    13
 74
     0
 42
0.0000000001
 43
0.0000000001
 40
0.0
 40
0.0
 40
0.0
 40
0.0
 40
1.0
 40
1.0
 40
1.0
 40
2.0
 40
2.0
 40
2.0
 40
3.0
 40
3.0
 40
3.0
 40
4.0
 40
4.0
 40
4.0
 40
4.0
 10
6.794501410590278
 20
-10.5
 30
0.0
 10
6.794501410590278
 20
-10.52457682291667
 30
0.0
 10
6.774576822916666
 20
-10.54450141059028
 30
0.0
 10
6.75
 20
-10.54450141059028
 30
0.0
 10
6.725423177083333
 20
-10.54450141059028
 30
0.0
 10
6.705498589409721
 20
-10.52457682291667
 30
0.0
 10
6.705498589409721
 20
-10.5
 30
0.0
 10
6.705498589409721
 20
-10.47542317708333
 30
0.0
 10
6.725423177083333
 20
-10.45549858940972
 30
0.0
 10
6.75
 20
-10.45549858940972
 30
0.0
 10
6.774576822916666
 20
-10.45549858940972
 30
0.0
 10
6.794501410590278
 20
-10.47542317708333
 30
0.0
 10
6.794501410590278
 20
-10.5
 30
0.0
  0
SPLINE
  5
A3
330
1F
100
AcDbEntity
  8
Layer 1
370
     0
100
AcDbSpline
210
0.0
220
0.0
230
1.0
 70
    11
 71
     3
 72
    17
 73
    13
 74
     0
 42
0.0000000001
 43
0.0000000001
 40
0.0
 40
0.0
 40
0.0
 40
0.0
 40
1.0
 40
1.0
 40
1.0
 40
2.0
 40
2.0
 40
2.0
 40
3.0
 40
3.0
 40
3.0
 40
4.0
 40
4.0
 40
4.0
 40
4.0
 10
5.294501410590278
 20
-11.0
 30
0.0
 10
5.294501410590278
 20
-11.02457682291667
 30
0.0
 10
5.274576822916666
 20
-11.04450141059028
 30
0.0
 10
5.25
 20
-11.04450141059028
 30
0.0
 10
5.225423177083333
 20
-11.04450141059028
 30
0.0
 10
5.205498589409722
 20
-11.02457682291667
 30
0.0
 10
5.205498589409722
 20
-11.0
 30
0.0
 10
5.205498589409722
 20
-10.97542317708333
 30
0.0
 10
5.225423177083333
 20
-10.95549858940972
 30
0.0
 10
5.25
 20
-10.95549858940972
 30
0.0
 10
5.274576822916666
 20
-10.95549858940972
 30
0.0
 10
5.294501410590278
 20
-10.97542317708333
 30
0.0
 10
5.294501410590278
 20
-11.0
 30
0.0
  0
SPLINE
  5
A4
330
1F
100
AcDbEntity
  8
Layer 1
370
     0
100
AcDbSpline
210
0.0
220
0.0
230
1.0
 70
    11
 71
     3
 72
    17
 73
    13
 74
     0
 42
0.0000000001
 43
0.0000000001
 40
0.0
 40
0.0
 40
0.0
 40
0.0
 40
1.0
 40
1.0
 40
1.0
 40
2.0
 40
2.0
 40
2.0
 40
3.0
 40
3.0
 40
3.0
 40
4.0
 40
4.0
 40
4.0
 40
4.0
 10
6.794501410590278
 20
-11.0
 30
0.0
 10
6.794501410590278
 20
-11.02457682291667
 30
0.0
 10
6.774576822916666
 20
-11.04450141059028
 30
0.0
 10
6.75
 20
-11.04450141059028
 30
0.0
 10
6.725423177083333
 20
-11.04450141059028
 30
0.0
 10
6.705498589409721
 20
-11.02457682291667
 30
0.0
 10
6.705498589409721
 20
-11.0
 30
0.0
 10
6.705498589409721
 20
-10.97542317708333
 30
0.0
 10
6.725423177083333
 20
-10.95549858940972
 30
0.0
 10
6.75
 20
-10.95549858940972
 30
0.0
 10
6.774576822916666
 20
-10.95549858940972
 30
0.0
 10
6.794501410590278
 20
-10.97542317708333
 30
0.0
 10
6.794501410590278
 20
-11.0
 30
0.0
  0
SPLINE
  5
A5
330
1F
100
AcDbEntity
  8
Layer 1
370
     0
100
AcDbSpline
210
0.0
220
0.0
230
1.0
 70
    11
 71
     3
 72
    17
 73
    13
 74
     0
 42
0.0000000001
 43
0.0000000001
 40
0.0
 40
0.0
 40
0.0
 40
0.0
 40
1.0
 40
1.0
 40
1.0
 40
2.0
 40
2.0
 40
2.0
 40
3.0
 40
3.0
 40
3.0
 40
4.0
 40
4.0
 40
4.0
 40
4.0
 10
5.794501410590278
 20
-10.0
 30
0.0
 10
5.794501410590278
 20
-10.02457682291667
 30
0.0
 10
5.774576822916666
 20
-10.04450141059028
 30
0.0
 10
5.75
 20
-10.04450141059028
 30
0.0
 10
5.725423177083333
 20
-10.04450141059028
 30
0.0
 10
5.705498589409722
 20
-10.02457682291667
 30
0.0
 10
5.705498589409722
 20
-10.0
 30
0.0
 10
5.705498589409722
 20
-9.975423177083332
 30
0.0
 10
5.725423177083333
 20
-9.955498589409721
 30
0.0
 10
5.75
 20
-9.955498589409721
 30
0.0
 10
5.774576822916666
 20
-9.955498589409721
 30
0.0
 10
5.794501410590278
 20
-9.975423177083332
 30
0.0
 10
5.794501410590278
 20
-10.0
 30
0.0
  0
SPLINE
  5
A6
330
1F
100
AcDbEntity
  8
Layer 1
370
     0
100
AcDbSpline
210
0.0
220
0.0
230
1.0
 70
    11
 71
     3
 72
    17
 73
    13
 74
     0
 42
0.0000000001
 43
0.0000000001
 40
0.0
 40
0.0
 40
0.0
 40
0.0
 40
1.0
 40
1.0
 40
1.0
 40
2.0
 40
2.0
 40
2.0
 40
3.0
 40
3.0
 40
3.0
 40
4.0
 40
4.0
 40
4.0
 40
4.0
 10
5.794501410590278
 20
-10.5
 30
0.0
 10
5.794501410590278
 20
-10.52457682291667
 30
0.0
 10
5.774576822916666
 20
-10.54450141059028
 30
0.0
 10
5.75
 20
-10.54450141059028
 30
0.0
 10
5.725423177083333
 20
-10.54450141059028
 30
0.0
 10
5.705498589409722
 20
-10.52457682291667
 30
0.0
 10
5.705498589409722
 20
-10.5
 30
0.0
 10
5.705498589409722
 20
-10.47542317708333
 30
0.0
 10
5.725423177083333
 20
-10.45549858940972
 30
0.0
 10
5.75
 20
-10.45549858940972
 30
0.0
 10
5.774576822916666
 20
-10.45549858940972
 30
0.0
 10
5.794501410590278
 20
-10.47542317708333
 30
0.0
 10
5.794501410590278
 20
-10.5
 30
0.0
  0
SPLINE
  5
A7
330
1F
100
AcDbEntity
  8
Layer 1
370
     0
100
AcDbSpline
210
0.0
220
0.0
230
1.0
 70
    11
 71
     3
 72
    17
 73
    13
 74
     0
 42
0.0000000001
 43
0.0000000001
 40
0.0
 40
0.0
 40
0.0
 40
0.0
 40
1.0
 40
1.0
 40
1.0
 40
2.0
 40
2.0
 40
2.0
 40
3.0
 40
3.0
 40
3.0
 40
4.0
 40
4.0
 40
4.0
 40
4.0
 10
5.794501410590278
 20
-11.0
 30
0.0
 10
5.794501410590278
 20
-11.02457682291667
 30
0.0
 10
5.774576822916666
 20
-11.04450141059028
 30
0.0
 10
5.75
 20
-11.04450141059028
 30
0.0
 10
5.725423177083333
 20
-11.04450141059028
 30
0.0
 10
5.705498589409722
 20
-11.02457682291667
 30
0.0
 10
5.705498589409722
 20
-11.0
 30
0.0
 10
5.705498589409722
 20
-10.97542317708333
 30
0.0
 10
5.725423177083333
 20
-10.95549858940972
 30
0.0
 10
5.75
 20
-10.95549858940972
 30
0.0
 10
5.774576822916666
 20
-10.95549858940972
 30
0.0
 10
5.794501410590278
 20
-10.97542317708333
 30
0.0
 10
5.794501410590278
 20
-11.0
 30
0.0
  0
SPLINE
  5
A8
330
1F
100
AcDbEntity
  8
Layer 1
370
     0
100
AcDbSpline
210
0.0
220
0.0
230
1.0
 70
    11
 71
     3
 72
    17
 73
    13
 74
     0
 42
0.0000000001
 43
0.0000000001
 40
0.0
 40
0.0
 40
0.0
 40
0.0
 40
1.0
 40
1.0
 40
1.0
 40
2.0
 40
2.0
 40
2.0
 40
3.0
 40
3.0
 40
3.0
 40
4.0
 40
4.0
 40
4.0
 40
4.0
 10
6.294501410590278
 20
-10.0
 30
0.0
 10
6.294501410590278
 20
-10.02457682291667
 30
0.0
 10
6.274576822916666
 20
-10.04450141059028
 30
0.0
 10
6.25
 20
-10.04450141059028
 30
0.0
 10
6.225423177083333
 20
-10.04450141059028
 30
0.0
 10
6.205498589409722
 20
-10.02457682291667
 30
0.0
 10
6.205498589409722
 20
-10.0
 30
0.0
 10
6.205498589409722
 20
-9.975423177083332
 30
0.0
 10
6.225423177083333
 20
-9.955498589409721
 30
0.0
 10
6.25
 20
-9.955498589409721
 30
0.0
 10
6.274576822916666
 20
-9.955498589409721
 30
0.0
 10
6.294501410590278
 20
-9.975423177083332
 30
0.0
 10
6.294501410590278
 20
-10.0
 30
0.0
  0
SPLINE
  5
A9
330
1F
100
AcDbEntity
  8
Layer 1
370
     0
100
AcDbSpline
210
0.0
220
0.0
230
1.0
 70
    11
 71
     3
 72
    17
 73
    13
 74
     0
 42
0.0000000001
 43
0.0000000001
 40
0.0
 40
0.0
 40
0.0
 40
0.0
 40
1.0
 40
1.0
 40
1.0
 40
2.0
 40
2.0
 40
2.0
 40
3.0
 40
3.0
 40
3.0
 40
4.0
 40
4.0
 40
4.0
 40
4.0
 10
6.294501410590278
 20
-10.5
 30
0.0
 10
6.294501410590278
 20
-10.52457682291667
 30
0.0
 10
6.274576822916666
 20
-10.54450141059028
 30
0.0
 10
6.25
 20
-10.54450141059028
 30
0.0
 10
6.225423177083333
 20
-10.54450141059028
 30
0.0
 10
6.205498589409722
 20
-10.52457682291667
 30
0.0
 10
6.205498589409722
 20
-10.5
 30
0.0
 10
6.205498589409722
 20
-10.47542317708333
 30
0.0
 10
6.225423177083333
 20
-10.45549858940972
 30
0.0
 10
6.25
 20
-10.45549858940972
 30
0.0
 10
6.274576822916666
 20
-10.45549858940972
 30
0.0
 10
6.294501410590278
 20
-10.47542317708333
 30
0.0
 10
6.294501410590278
 20
-10.5
 30
0.0
  0
SPLINE
  5
AA
330
1F
100
AcDbEntity
  8
Layer 1
370
     0
100
AcDbSpline
210
0.0
220
0.0
230
1.0
 70
    11
 71
     3
 72
    17
 73
    13
 74
     0
 42
0.0000000001
 43
0.0000000001
 40
0.0
 40
0.0
 40
0.0
 40
0.0
 40
1.0
 40
1.0
 40
1.0
 40
2.0
 40
2.0
 40
2.0
 40
3.0
 40
3.0
 40
3.0
 40
4.0
 40
4.0
 40
4.0
 40
4.0
 10
6.294501410590278
 20
-11.0
 30
0.0
 10
6.294501410590278
 20
-11.02457682291667
 30
0.0
 10
6.274576822916666
 20
-11.04450141059028
 30
0.0
 10
6.25
 20
-11.04450141059028
 30
0.0
 10
6.225423177083333
 20
-11.04450141059028
 30
0.0
 10
6.205498589409722
 20
-11.02457682291667
 30
0.0
 10
6.205498589409722
 20
-11.0
 30
0.0
 10
6.205498589409722
 20
-10.97542317708333
 30
0.0
 10
6.225423177083333
 20
-10.95549858940972
 30
0.0
 10
6.25
 20
-10.95549858940972
 30
0.0
 10
6.274576822916666
 20
-10.95549858940972
 30
0.0
 10
6.294501410590278
 20
-10.97542317708333
 30
0.0
 10
6.294501410590278
 20
-11.0
 30
0.0
  0
SPLINE
  5
AB
330
1F
100
AcDbEntity
  8
Layer 1
370
     0
100
AcDbSpline
210
0.0
220
0.0
230
1.0
 70
    11
 71
     3
 72
    17
 73
    13
 74
     0
 42
0.0000000001
 43
0.0000000001
 40
0.0
 40
0.0
 40
0.0
 40
0.0
 40
1.0
 40
1.0
 40
1.0
 40
2.0
 40
2.0
 40
2.0
 40
3.0
 40
3.0
 40
3.0
 40
4.0
 40
4.0
 40
4.0
 40
4.0
 10
8.857869466145832
 20
-2.434733072916667
 30
0.0
 10
8.875257703993055
 20
-2.452107747395833
 30
0.0
 10
8.875257703993055
 20
-2.480292426215278
 30
0.0
 10
8.857869466145832
 20
-2.497667100694444
 30
0.0
 10
8.840494791666666
 20
-2.515055338541667
 30
0.0
 10
8.812323676215277
 20
-2.515055338541667
 30
0.0
 10
8.794935438368055
 20
-2.497667100694444
 30
0.0
 10
8.77756076388889
 20
-2.480292426215278
 30
0.0
 10
8.77756076388889
 20
-2.452107747395833
 30
0.0
 10
8.794935438368055
 20
-2.434733072916667
 30
0.0
 10
8.812323676215277
 20
-2.4173583984375
 30
0.0
 10
8.840494791666666
 20
-2.4173583984375
 30
0.0
 10
8.857869466145832
 20
-2.434733072916667
 30
0.0
  0
SPLINE
  5
AC
330
1F
100
AcDbEntity
  8
Layer 1
370
     0
100
AcDbSpline
210
0.0
220
0.0
230
1.0
 70
    11
 71
     3
 72
    17
 73
    13
 74
     0
 42
0.0000000001
 43
0.0000000001
 40
0.0
 40
0.0
 40
0.0
 40
0.0
 40
1.0
 40
1.0
 40
1.0
 40
2.0
 40
2.0
 40
2.0
 40
3.0
 40
3.0
 40
3.0
 40
4.0
 40
4.0
 40
4.0
 40
4.0
 10
9.5650634765625
 20
-3.142333984375
 30
0.0
 10
9.582451714409721
 20
-3.159708658854167
 30
0.0
 10
9.582451714409721
 20
-3.187893337673611
 30
0.0
 10
9.5650634765625
 20
-3.205268012152778
 30
0.0
 10
9.547702365451388
 20
-3.222642686631944
 30
0.0
 10
9.519517686631945
 20
-3.222642686631944
 30
0.0
 10
9.502129448784721
 20
-3.205268012152778
 30
0.0
 10
9.48476833767361
 20
-3.187893337673611
 30
0.0
 10
9.48476833767361
 20
-3.159708658854167
 30
0.0
 10
9.502129448784721
 20
-3.142333984375
 30
0.0
 10
9.519517686631945
 20
-3.124959309895833
 30
0.0
 10
9.547702365451388
 20
-3.124959309895833
 30
0.0
 10
9.5650634765625
 20
-3.142333984375
 30
0.0
  0
SPLINE
  5
AD
330
1F
100
AcDbEntity
  8
Layer 1
370
     0
100
AcDbSpline
210
0.0
220
0.0
230
1.0
 70
    11
 71
     3
 72
    17
 73
    13
 74
     0
 42
0.0000000001
 43
0.0000000001
 40
0.0
 40
0.0
 40
0.0
 40
0.0
 40
1.0
 40
1.0
 40
1.0
 40
2.0
 40
2.0
 40
2.0
 40
3.0
 40
3.0
 40
3.0
 40
4.0
 40
4.0
 40
4.0
 40
4.0
 10
7.27508544921875
 20
-1.308871799045139
 30
0.0
 10
7.257697211371528
 20
-1.326246473524306
 30
0.0
 10
7.229526095920138
 20
-1.326246473524306
 30
0.0
 10
7.212151421440971
 20
-1.308871799045139
 30
0.0
 10
7.19476318359375
 20
-1.291497124565972
 30
0.0
 10
7.19476318359375
 20
-1.263312445746528
 30
0.0
 10
7.212151421440971
 20
-1.245937771267361
 30
0.0
 10
7.229526095920138
 20
-1.228563096788194
 30
0.0
 10
7.257697211371528
 20
-1.228563096788194
 30
0.0
 10
7.27508544921875
 20
-1.245937771267361
 30
0.0
 10
7.292460123697916
 20
-1.263312445746528
 30
0.0
 10
7.292460123697916
 20
-1.291497124565972
 30
0.0
 10
7.27508544921875
 20
-1.308871799045139
 30
0.0
  0
SPLINE
  5
AE
330
1F
100
AcDbEntity
  8
Layer 1
370
     0
100
AcDbSpline
210
0.0
220
0.0
230
1.0
 70
    11
 71
     3
 72
    17
 73
    13
 74
     0
 42
0.0000000001
 43
0.0000000001
 40
0.0
 40
0.0
 40
0.0
 40
0.0
 40
1.0
 40
1.0
 40
1.0
 40
2.0
 40
2.0
 40
2.0
 40
3.0
 40
3.0
 40
3.0
 40
4.0
 40
4.0
 40
4.0
 40
4.0
 10
1.308871799045139
 20
-7.275105794270833
 30
0.0
 10
1.291497124565972
 20
-7.29248046875
 30
0.0
 10
1.263312445746528
 20
-7.29248046875
 30
0.0
 10
1.245937771267361
 20
-7.275105794270833
 30
0.0
 10
1.228563096788194
 20
-7.257717556423611
 30
0.0
 10
1.228563096788194
 20
-7.229532877604166
 30
0.0
 10
1.245937771267361
 20
-7.212158203125
 30
0.0
 10
1.263312445746528
 20
-7.194783528645833
 30
0.0
 10
1.291497124565972
 20
-7.194783528645833
 30
0.0
 10
1.308871799045139
 20
-7.212158203125
 30
0.0
 10
1.326246473524306
 20
-7.229532877604166
 30
0.0
 10
1.326246473524306
 20
-7.257717556423611
 30
0.0
 10
1.308871799045139
 20
-7.275105794270833
 30
0.0
  0
SPLINE
  5
AF
330
1F
100
AcDbEntity
  8
Layer 1
370
     0
100
AcDbSpline
210
0.0
220
0.0
230
1.0
 70
    11
 71
     3
 72
    17
 73
    13
 74
     0
 42
0.0000000001
 43
0.0000000001
 40
0.0
 40
0.0
 40
0.0
 40
0.0
 40
1.0
 40
1.0
 40
1.0
 40
2.0
 40
2.0
 40
2.0
 40
3.0
 40
3.0
 40
3.0
 40
4.0
 40
4.0
 40
4.0
 40
4.0
 10
10.75405544704861
 20
-4.787848578559028
 30
0.0
 10
10.73668077256944
 20
-4.80523681640625
 30
0.0
 10
10.70849609375
 20
-4.80523681640625
 30
0.0
 10
10.69112141927083
 20
-4.787848578559028
 30
0.0
 10
10.67374674479167
 20
-4.770473904079861
 30
0.0
 10
10.67374674479167
 20
-4.742302788628472
 30
0.0
 10
10.69112141927083
 20
-4.72491455078125
 30
0.0
 10
10.70849609375
 20
-4.707539876302083
 30
0.0
 10
10.73668077256944
 20
-4.707539876302083
 30
0.0
 10
10.75405544704861
 20
-4.72491455078125
 30
0.0
 10
10.77143012152778
 20
-4.742302788628472
 30
0.0
 10
10.77143012152778
 20
-4.770473904079861
 30
0.0
 10
10.75405544704861
 20
-4.787848578559028
 30
0.0
  0
SPLINE
  5
B0
330
1F
100
AcDbEntity
  8
Layer 1
370
     0
100
AcDbSpline
210
0.0
220
0.0
230
1.0
 70
    11
 71
     3
 72
    17
 73
    13
 74
     0
 42
0.0000000001
 43
0.0000000001
 40
0.0
 40
0.0
 40
0.0
 40
0.0
 40
1.0
 40
1.0
 40
1.0
 40
2.0
 40
2.0
 40
2.0
 40
3.0
 40
3.0
 40
3.0
 40
4.0
 40
4.0
 40
4.0
 40
4.0
 10
4.787835015190972
 20
-10.75406901041667
 30
0.0
 10
4.770460340711805
 20
-10.77145724826389
 30
0.0
 10
4.742275661892361
 20
-10.77145724826389
 30
0.0
 10
4.724900987413194
 20
-10.75406901041667
 30
0.0
 10
4.707526312934028
 20
-10.73670789930556
 30
0.0
 10
4.707526312934028
 20
-10.70852322048611
 30
0.0
 10
4.724900987413194
 20
-10.69113498263889
 30
0.0
 10
4.742275661892361
 20
-10.67377387152778
 30
0.0
 10
4.770460340711805
 20
-10.67377387152778
 30
0.0
 10
4.787835015190972
 20
-10.69113498263889
 30
0.0
 10
4.805223253038194
 20
-10.70852322048611
 30
0.0
 10
4.805223253038194
 20
-10.73670789930556
 30
0.0
 10
4.787835015190972
 20
-10.75406901041667
 30
0.0
  0
POLYLINE
  5
B1
330
1F
100
AcDbEntity
  8
Layer 1
370
     0
100
AcDb2dPolyline
 66
     1
 10
0.0
 20
0.0
 30
0.0
  0
VERTEX
  5
B2
330
B1
100
AcDbEntity
  8
Layer 1
370
     0
100
AcDbVertex
100
AcDb2dVertex
 10
9.875
 20
-8.875
 30
0.0
  0
VERTEX
  5
B3
330
B1
100
AcDbEntity
  8
Layer 1
370
     0
100
AcDbVertex
100
AcDb2dVertex
 10
6.125006781684028
 20
-8.875
 30
0.0
  0
VERTEX
  5
B4
330
B1
100
AcDbEntity
  8
Layer 1
370
     0
100
AcDbVertex
100
AcDb2dVertex
 10
6.125006781684028
 20
-3.125
 30
0.0
  0
VERTEX
  5
B5
330
B1
100
AcDbEntity
  8
Layer 1
370
     0
100
AcDbVertex
100
AcDb2dVertex
 10
9.875
 20
-3.125
 30
0.0
  0
VERTEX
  5
B6
330
B1
100
AcDbEntity
  8
Layer 1
370
     0
100
AcDbVertex
100
AcDb2dVertex
 10
9.875
 20
-8.875
 30
0.0
  0
SEQEND
  5
B7
330
B1
100
AcDbEntity
  8
Layer 1
370
     0
  0
POLYLINE
  5
B8
330
1F
100
AcDbEntity
  8
Layer 1
370
     0
100
AcDb2dPolyline
 66
     1
 10
0.0
 20
0.0
 30
0.0
  0
VERTEX
  5
B9
330
B8
100
AcDbEntity
  8
Layer 1
370
     0
100
AcDbVertex
100
AcDb2dVertex
 10
5.062201605902778
 20
-4.3125
 30
0.0
  0
VERTEX
  5
BA
330
B8
100
AcDbEntity
  8
Layer 1
370
     0
100
AcDbVertex
100
AcDb2dVertex
 10
2.437201605902778
 20
-4.3125
 30
0.0
  0
VERTEX
  5
BB
330
B8
100
AcDbEntity
  8
Layer 1
370
     0
100
AcDbVertex
100
AcDb2dVertex
 10
2.437201605902778
 20
-2.6875
 30
0.0
  0
VERTEX
  5
BC
330
B8
100
AcDbEntity
  8
Layer 1
370
     0
100
AcDbVertex
100
AcDb2dVertex
 10
5.062201605902778
 20
-2.6875
 30
0.0
  0
VERTEX
  5
BD
330
B8
100
AcDbEntity
  8
Layer 1
370
     0
100
AcDbVertex
100
AcDb2dVertex
 10
5.062201605902778
 20
-4.3125
 30
0.0
  0
SEQEND
  5
BE
330
B8
100
AcDbEntity
  8
Layer 1
370
     0
  0
POLYLINE
  5
BF
330
1F
100
AcDbEntity
  8
Layer 1
370
     0
100
AcDb2dPolyline
 66
     1
 10
0.0
 20
0.0
 30
0.0
  0
VERTEX
  5
C0
330
BF
100
AcDbEntity
  8
Layer 1
370
     0
100
AcDbVertex
100
AcDb2dVertex
 10
5.062201605902778
 20
-9.3125
 30
0.0
  0
VERTEX
  5
C1
330
BF
100
AcDbEntity
  8
Layer 1
370
     0
100
AcDbVertex
100
AcDb2dVertex
 10
2.437201605902778
 20
-9.3125
 30
0.0
  0
VERTEX
  5
C2
330
BF
100
AcDbEntity
  8
Layer 1
370
     0
100
AcDbVertex
100
AcDb2dVertex
 10
2.437201605902778
 20
-7.6875
 30
0.0
  0
VERTEX
  5
C3
330
BF
100
AcDbEntity
  8
Layer 1
370
     0
100
AcDbVertex
100
AcDb2dVertex
 10
5.062201605902778
 20
-7.6875
 30
0.0
  0
VERTEX
  5
C4
330
BF
100
AcDbEntity
  8
Layer 1
370
     0
100
AcDbVertex
100
AcDb2dVertex
 10
5.062201605902778
 20
-9.3125
 30
0.0
  0
SEQEND
  5
C5
330
BF
100
AcDbEntity
  8
Layer 1
370
     0
  0
POLYLINE
  5
C6
330
1F
100
AcDbEntity
  8
Layer 1
370
     0
100
AcDb2dPolyline
 66
     1
 10
0.0
 20
0.0
 30
0.0
  0
VERTEX
  5
C7
330
C6
100
AcDbEntity
  8
Layer 1
370
     0
100
AcDbVertex
100
AcDb2dVertex
 10
5.062798394097222
 20
-6.965006510416666
 30
0.0
  0
VERTEX
  5
C8
330
C6
100
AcDbEntity
  8
Layer 1
370
     0
100
AcDbVertex
100
AcDb2dVertex
 10
2.782796223958333
 20
-6.965006510416666
 30
0.0
  0
VERTEX
  5
C9
330
C6
100
AcDbEntity
  8
Layer 1
370
     0
100
AcDbVertex
100
AcDb2dVertex
 10
2.782796223958333
 20
-5.035000271267361
 30
0.0
  0
VERTEX
  5
CA
330
C6
100
AcDbEntity
  8
Layer 1
370
     0
100
AcDbVertex
100
AcDb2dVertex
 10
5.062798394097222
 20
-5.035000271267361
 30
0.0
  0
VERTEX
  5
CB
330
C6
100
AcDbEntity
  8
Layer 1
370
     0
100
AcDbVertex
100
AcDb2dVertex
 10
5.062798394097222
 20
-6.965006510416666
 30
0.0
  0
SEQEND
  5
CC
330
C6
100
AcDbEntity
  8
Layer 1
370
     0
  0
SPLINE
  5
CD
330
1F
100
AcDbEntity
  8
Layer 1
370
     0
100
AcDbSpline
210
0.0
220
0.0
230
1.0
 70
    11
 71
     3
 72
    17
 73
    13
 74
     0
 42
0.0000000001
 43
0.0000000001
 40
0.0
 40
0.0
 40
0.0
 40
0.0
 40
1.0
 40
1.0
 40
1.0
 40
2.0
 40
2.0
 40
2.0
 40
3.0
 40
3.0
 40
3.0
 40
4.0
 40
4.0
 40
4.0
 40
4.0
 10
1.044501410590278
 20
-5.5
 30
0.0
 10
1.044501410590278
 20
-5.524576822916666
 30
0.0
 10
1.024576822916667
 20
-5.544501410590278
 30
0.0
 10
1.0
 20
-5.544501410590278
 30
0.0
 10
0.9754231770833333
 20
-5.544501410590278
 30
0.0
 10
0.9554985894097222
 20
-5.524576822916666
 30
0.0
 10
0.9554985894097222
 20
-5.5
 30
0.0
 10
0.9554985894097222
 20
-5.475423177083333
 30
0.0
 10
0.9754231770833333
 20
-5.455498589409722
 30
0.0
 10
1.0
 20
-5.455498589409722
 30
0.0
 10
1.024576822916667
 20
-5.455498589409722
 30
0.0
 10
1.044501410590278
 20
-5.475423177083333
 30
0.0
 10
1.044501410590278
 20
-5.5
 30
0.0
  0
SPLINE
  5
CE
330
1F
100
AcDbEntity
  8
Layer 1
370
     0
100
AcDbSpline
210
0.0
220
0.0
230
1.0
 70
    11
 71
     3
 72
    17
 73
    13
 74
     0
 42
0.0000000001
 43
0.0000000001
 40
0.0
 40
0.0
 40
0.0
 40
0.0
 40
1.0
 40
1.0
 40
1.0
 40
2.0
 40
2.0
 40
2.0
 40
3.0
 40
3.0
 40
3.0
 40
4.0
 40
4.0
 40
4.0
 40
4.0
 10
1.044501410590278
 20
-6.5
 30
0.0
 10
1.044501410590278
 20
-6.524576822916666
 30
0.0
 10
1.024576822916667
 20
-6.544501410590278
 30
0.0
 10
1.0
 20
-6.544501410590278
 30
0.0
 10
0.9754231770833333
 20
-6.544501410590278
 30
0.0
 10
0.9554985894097222
 20
-6.524576822916666
 30
0.0
 10
0.9554985894097222
 20
-6.5
 30
0.0
 10
0.9554985894097222
 20
-6.475423177083333
 30
0.0
 10
0.9754231770833333
 20
-6.455498589409721
 30
0.0
 10
1.0
 20
-6.455498589409721
 30
0.0
 10
1.024576822916667
 20
-6.455498589409721
 30
0.0
 10
1.044501410590278
 20
-6.475423177083333
 30
0.0
 10
1.044501410590278
 20
-6.5
 30
0.0
  0
POLYLINE
  5
CF
330
1F
100
AcDbEntity
  8
Layer 1
370
     0
100
AcDb2dPolyline
 66
     1
 10
0.0
 20
0.0
 30
0.0
  0
VERTEX
  5
D0
330
CF
100
AcDbEntity
  8
Layer 1
370
     0
100
AcDbVertex
100
AcDb2dVertex
 10
6.75
 20
-11.0
 30
0.0
  0
VERTEX
  5
D1
330
CF
100
AcDbEntity
  8
Layer 1
370
     0
100
AcDbVertex
100
AcDb2dVertex
 10
5.25
 20
-11.0
 30
0.0
  0
VERTEX
  5
D2
330
CF
100
AcDbEntity
  8
Layer 1
370
     0
100
AcDbVertex
100
AcDb2dVertex
 10
5.25
 20
-10.0
 30
0.0
  0
VERTEX
  5
D3
330
CF
100
AcDbEntity
  8
Layer 1
370
     0
100
AcDbVertex
100
AcDb2dVertex
 10
6.75
 20
-10.0
 30
0.0
  0
VERTEX
  5
D4
330
CF
100
AcDbEntity
  8
Layer 1
370
     0
100
AcDbVertex
100
AcDb2dVertex
 10
6.75
 20
-11.0
 30
0.0
  0
SEQEND
  5
D5
330
CF
100
AcDbEntity
  8
Layer 1
370
     0
  0
POLYLINE
  5
D6
330
1F
100
AcDbEntity
  8
Layer 1
370
     0
100
AcDb2dPolyline
 66
     1
 10
0.0
 20
0.0
 30
0.0
  0
VERTEX
  5
D7
330
D6
100
AcDbEntity
  8
Layer 1
370
     0
100
AcDbVertex
100
AcDb2dVertex
 10
6.75
 20
-2.0
 30
0.0
  0
VERTEX
  5
D8
330
D6
100
AcDbEntity
  8
Layer 1
370
     0
100
AcDbVertex
100
AcDb2dVertex
 10
5.25
 20
-2.0
 30
0.0
  0
VERTEX
  5
D9
330
D6
100
AcDbEntity
  8
Layer 1
370
     0
100
AcDbVertex
100
AcDb2dVertex
 10
5.25
 20
-1.0
 30
0.0
  0
VERTEX
  5
DA
330
D6
100
AcDbEntity
  8
Layer 1
370
     0
100
AcDbVertex
100
AcDb2dVertex
 10
6.75
 20
-1.0
 30
0.0
  0
VERTEX
  5
DB
330
D6
100
AcDbEntity
  8
Layer 1
370
     0
100
AcDbVertex
100
AcDb2dVertex
 10
6.75
 20
-2.0
 30
0.0
  0
SEQEND
  5
DC
330
D6
100
AcDbEntity
  8
Layer 1
370
     0
  0
SPLINE
  5
DD
330
1F
100
AcDbEntity
  8
Layer 1
370
     0
100
AcDbSpline
210
0.0
220
0.0
230
1.0
 70
    11
 71
     3
 72
    17
 73
    13
 74
     0
 42
0.0000000001
 43
0.0000000001
 40
0.0
 40
0.0
 40
0.0
 40
0.0
 40
1.0
 40
1.0
 40
1.0
 40
2.0
 40
2.0
 40
2.0
 40
3.0
 40
3.0
 40
3.0
 40
4.0
 40
4.0
 40
4.0
 40
4.0
 10
10.54450141059028
 20
-4.0
 30
0.0
 10
10.54450141059028
 20
-4.024576822916666
 30
0.0
 10
10.52457682291667
 20
-4.044501410590278
 30
0.0
 10
10.5
 20
-4.044501410590278
 30
0.0
 10
10.47542317708333
 20
-4.044501410590278
 30
0.0
 10
10.45549858940972
 20
-4.024576822916666
 30
0.0
 10
10.45549858940972
 20
-4.0
 30
0.0
 10
10.45549858940972
 20
-3.975423177083333
 30
0.0
 10
10.47542317708333
 20
-3.955498589409722
 30
0.0
 10
10.5
 20
-3.955498589409722
 30
0.0
 10
10.52457682291667
 20
-3.955498589409722
 30
0.0
 10
10.54450141059028
 20
-3.975423177083333
 30
0.0
 10
10.54450141059028
 20
-4.0
 30
0.0
  0
SPLINE
  5
DE
330
1F
100
AcDbEntity
  8
Layer 1
370
     0
100
AcDbSpline
210
0.0
220
0.0
230
1.0
 70
    11
 71
     3
 72
    17
 73
    13
 74
     0
 42
0.0000000001
 43
0.0000000001
 40
0.0
 40
0.0
 40
0.0
 40
0.0
 40
1.0
 40
1.0
 40
1.0
 40
2.0
 40
2.0
 40
2.0
 40
3.0
 40
3.0
 40
3.0
 40
4.0
 40
4.0
 40
4.0
 40
4.0
 10
10.54450141059028
 20
-8.0
 30
0.0
 10
10.54450141059028
 20
-8.024576822916666
 30
0.0
 10
10.52457682291667
 20
-8.044501410590277
 30
0.0
 10
10.5
 20
-8.044501410590277
 30
0.0
 10
10.47542317708333
 20
-8.044501410590277
 30
0.0
 10
10.45549858940972
 20
-8.024576822916666
 30
0.0
 10
10.45549858940972
 20
-8.0
 30
0.0
 10
10.45549858940972
 20
-7.975423177083333
 30
0.0
 10
10.47542317708333
 20
-7.955498589409721
 30
0.0
 10
10.5
 20
-7.955498589409721
 30
0.0
 10
10.52457682291667
 20
-7.955498589409721
 30
0.0
 10
10.54450141059028
 20
-7.975423177083333
 30
0.0
 10
10.54450141059028
 20
-8.0
 30
0.0
  0
SPLINE
  5
DF
330
1F
100
AcDbEntity
  8
Layer 1
370
     0
100
AcDbSpline
210
0.0
220
0.0
230
1.0
 70
    11
 71
     3
 72
    17
 73
    13
 74
     0
 42
0.0000000001
 43
0.0000000001
 40
0.0
 40
0.0
 40
0.0
 40
0.0
 40
1.0
 40
1.0
 40
1.0
 40
2.0
 40
2.0
 40
2.0
 40
3.0
 40
3.0
 40
3.0
 40
4.0
 40
4.0
 40
4.0
 40
4.0
 10
7.797254774305555
 20
-1.374321831597222
 30
0.0
 10
7.814629448784721
 20
-1.391696506076389
 30
0.0
 10
7.814629448784721
 20
-1.419874403211806
 30
0.0
 10
7.797254774305555
 20
-1.437255859375
 30
0.0
 10
7.779880099826388
 20
-1.454630533854167
 30
0.0
 10
7.751695421006944
 20
-1.454630533854167
 30
0.0
 10
7.734320746527778
 20
-1.437255859375
 30
0.0
 10
7.716946072048611
 20
-1.419874403211806
 30
0.0
 10
7.716946072048611
 20
-1.391696506076389
 30
0.0
 10
7.734320746527778
 20
-1.374321831597222
 30
0.0
 10
7.751695421006944
 20
-1.356940375434028
 30
0.0
 10
7.779880099826388
 20
-1.356940375434028
 30
0.0
 10
7.797254774305555
 20
-1.374321831597222
 30
0.0
  0
SPLINE
  5
E0
330
1F
100
AcDbEntity
  8
Layer 1
370
     0
100
AcDbSpline
210
0.0
220
0.0
230
1.0
 70
    11
 71
     3
 72
    17
 73
    13
 74
     0
 42
0.0000000001
 43
0.0000000001
 40
0.0
 40
0.0
 40
0.0
 40
0.0
 40
1.0
 40
1.0
 40
1.0
 40
2.0
 40
2.0
 40
2.0
 40
3.0
 40
3.0
 40
3.0
 40
4.0
 40
4.0
 40
4.0
 40
4.0
 10
10.62567816840278
 20
-4.202745225694445
 30
0.0
 10
10.64305284288194
 20
-4.220119900173611
 30
0.0
 10
10.64305284288194
 20
-4.248304578993055
 30
0.0
 10
10.62567816840278
 20
-4.265679253472222
 30
0.0
 10
10.60830349392361
 20
-4.283053927951388
 30
0.0
 10
10.58011881510417
 20
-4.283053927951388
 30
0.0
 10
10.562744140625
 20
-4.265679253472222
 30
0.0
 10
10.54536946614583
 20
-4.248304578993055
 30
0.0
 10
10.54536946614583
 20
-4.220119900173611
 30
0.0
 10
10.562744140625
 20
-4.202745225694445
 30
0.0
 10
10.58011881510417
 20
-4.185370551215278
 30
0.0
 10
10.60830349392361
 20
-4.185370551215278
 30
0.0
 10
10.62567816840278
 20
-4.202745225694445
 30
0.0
  0
POLYLINE
  5
E1
330
1F
100
AcDbEntity
  8
Layer 1
370
     0
100
AcDb2dPolyline
 66
     1
 10
0.0
 20
0.0
 30
0.0
  0
VERTEX
  5
E2
330
E1
100
AcDbEntity
  8
Layer 1
370
     0
100
AcDbVertex
100
AcDb2dVertex
 10
10.5
 20
-4.0
 30
0.0
  0
VERTEX
  5
E3
330
E1
100
AcDbEntity
  8
Layer 1
370
     0
100
AcDbVertex
100
AcDb2dVertex
 10
10.5
 20
-8.0
 30
0.0
  0
SEQEND
  5
E4
330
E1
100
AcDbEntity
  8
Layer 1
370
     0
  0
POLYLINE
  5
E5
330
1F
100
AcDbEntity
  8
Layer 1
370
     0
100
AcDb2dPolyline
 66
     1
 10
0.0
 20
0.0
 30
0.0
  0
VERTEX
  5
E6
330
E5
100
AcDbEntity
  8
Layer 1
370
     0
100
AcDbVertex
100
AcDb2dVertex
 10
7.765787760416666
 20
-1.405782063802083
 30
0.0
  0
VERTEX
  5
E7
330
E5
100
AcDbEntity
  8
Layer 1
370
     0
100
AcDbVertex
100
AcDb2dVertex
 10
10.59421115451389
 20
-4.234212239583333
 30
0.0
  0
SEQEND
  5
E8
330
E5
100
AcDbEntity
  8
Layer 1
370
     0
  0
SPLINE
  5
E9
330
1F
100
AcDbEntity
  8
Layer 1
370
     0
100
AcDbSpline
210
0.0
220
0.0
230
1.0
 70
    11
 71
     3
 72
    17
 73
    13
 74
     0
 42
0.0000000001
 43
0.0000000001
 40
0.0
 40
0.0
 40
0.0
 40
0.0
 40
1.0
 40
1.0
 40
1.0
 40
2.0
 40
2.0
 40
2.0
 40
3.0
 40
3.0
 40
3.0
 40
4.0
 40
4.0
 40
4.0
 40
4.0
 10
9.565022786458332
 20
-8.85791015625
 30
0.0
 10
9.54763454861111
 20
-8.875298394097221
 30
0.0
 10
9.519463433159721
 20
-8.875284830729166
 30
0.0
 10
9.502088758680555
 20
-8.85791015625
 30
0.0
 10
9.484700520833332
 20
-8.840535481770832
 30
0.0
 10
9.484700520833332
 20
-8.81235080295139
 30
0.0
 10
9.502088758680555
 20
-8.794976128472221
 30
0.0
 10
9.519463433159721
 20
-8.777601453993055
 30
0.0
 10
9.54763454861111
 20
-8.777601453993055
 30
0.0
 10
9.565022786458332
 20
-8.794976128472221
 30
0.0
 10
9.5823974609375
 20
-8.81235080295139
 30
0.0
 10
9.5823974609375
 20
-8.840535481770832
 30
0.0
 10
9.565022786458332
 20
-8.85791015625
 30
0.0
  0
SPLINE
  5
EA
330
1F
100
AcDbEntity
  8
Layer 1
370
     0
100
AcDbSpline
210
0.0
220
0.0
230
1.0
 70
    11
 71
     3
 72
    17
 73
    13
 74
     0
 42
0.0000000001
 43
0.0000000001
 40
0.0
 40
0.0
 40
0.0
 40
0.0
 40
1.0
 40
1.0
 40
1.0
 40
2.0
 40
2.0
 40
2.0
 40
3.0
 40
3.0
 40
3.0
 40
4.0
 40
4.0
 40
4.0
 40
4.0
 10
8.85791015625
 20
-9.565022786458332
 30
0.0
 10
8.840535481770832
 20
-9.5823974609375
 30
0.0
 10
8.81235080295139
 20
-9.5823974609375
 30
0.0
 10
8.794976128472221
 20
-9.565022786458332
 30
0.0
 10
8.777601453993055
 20
-9.547648111979166
 30
0.0
 10
8.777601453993055
 20
-9.519463433159721
 30
0.0
 10
8.794976128472221
 20
-9.502088758680555
 30
0.0
 10
8.81235080295139
 20
-9.484714084201388
 30
0.0
 10
8.840535481770832
 20
-9.484714084201388
 30
0.0
 10
8.85791015625
 20
-9.502088758680555
 30
0.0
 10
8.875298394097221
 20
-9.519463433159721
 30
0.0
 10
8.875298394097221
 20
-9.547648111979166
 30
0.0
 10
8.85791015625
 20
-9.565022786458332
 30
0.0
  0
SPLINE
  5
EB
330
1F
100
AcDbEntity
  8
Layer 1
370
     0
100
AcDbSpline
210
0.0
220
0.0
230
1.0
 70
    11
 71
     3
 72
    17
 73
    13
 74
     0
 42
0.0000000001
 43
0.0000000001
 40
0.0
 40
0.0
 40
0.0
 40
0.0
 40
1.0
 40
1.0
 40
1.0
 40
2.0
 40
2.0
 40
2.0
 40
3.0
 40
3.0
 40
3.0
 40
4.0
 40
4.0
 40
4.0
 40
4.0
 10
10.62567816840278
 20
-7.797254774305555
 30
0.0
 10
10.60830349392361
 20
-7.814629448784721
 30
0.0
 10
10.58011881510417
 20
-7.814629448784721
 30
0.0
 10
10.562744140625
 20
-7.797254774305555
 30
0.0
 10
10.54536946614583
 20
-7.779880099826388
 30
0.0
 10
10.54536946614583
 20
-7.751695421006944
 30
0.0
 10
10.562744140625
 20
-7.734320746527778
 30
0.0
 10
10.58011881510417
 20
-7.716946072048611
 30
0.0
 10
10.60830349392361
 20
-7.716946072048611
 30
0.0
 10
10.62567816840278
 20
-7.734320746527778
 30
0.0
 10
10.64305284288194
 20
-7.751695421006944
 30
0.0
 10
10.64305284288194
 20
-7.779880099826388
 30
0.0
 10
10.62567816840278
 20
-7.797254774305555
 30
0.0
  0
SPLINE
  5
EC
330
1F
100
AcDbEntity
  8
Layer 1
370
     0
100
AcDbSpline
210
0.0
220
0.0
230
1.0
 70
    11
 71
     3
 72
    17
 73
    13
 74
     0
 42
0.0000000001
 43
0.0000000001
 40
0.0
 40
0.0
 40
0.0
 40
0.0
 40
1.0
 40
1.0
 40
1.0
 40
2.0
 40
2.0
 40
2.0
 40
3.0
 40
3.0
 40
3.0
 40
4.0
 40
4.0
 40
4.0
 40
4.0
 10
7.797254774305555
 20
-10.62567816840278
 30
0.0
 10
7.779873318142361
 20
-10.64305284288194
 30
0.0
 10
7.751695421006944
 20
-10.64305284288194
 30
0.0
 10
7.734320746527778
 20
-10.62567816840278
 30
0.0
 10
7.716939290364583
 20
-10.60830349392361
 30
0.0
 10
7.716939290364583
 20
-10.58011881510417
 30
0.0
 10
7.734320746527778
 20
-10.562744140625
 30
0.0
 10
7.751695421006944
 20
-10.54536946614583
 30
0.0
 10
7.779873318142361
 20
-10.54536946614583
 30
0.0
 10
7.797254774305555
 20
-10.562744140625
 30
0.0
 10
7.814629448784721
 20
-10.58011881510417
 30
0.0
 10
7.814629448784721
 20
-10.60830349392361
 30
0.0
 10
7.797254774305555
 20
-10.62567816840278
 30
0.0
  0
POLYLINE
  5
ED
330
1F
100
AcDbEntity
  8
Layer 1
370
     0
100
AcDb2dPolyline
 66
     1
 10
0.0
 20
0.0
 30
0.0
  0
VERTEX
  5
EE
330
ED
100
AcDbEntity
  8
Layer 1
370
     0
100
AcDbVertex
100
AcDb2dVertex
 10
10.59421115451389
 20
-7.765787760416666
 30
0.0
  0
VERTEX
  5
EF
330
ED
100
AcDbEntity
  8
Layer 1
370
     0
100
AcDbVertex
100
AcDb2dVertex
 10
7.765787760416666
 20
-10.59421115451389
 30
0.0
  0
SEQEND
  5
F0
330
ED
100
AcDbEntity
  8
Layer 1
370
     0
  0
ENDSEC
  0
SECTION
  2
OBJECTS
  0
DICTIONARY
  5
C
330
0
100
AcDbDictionary
281
     1
  3
ACAD_GROUP
350
D
  3
ACAD_LAYOUT
350
1A
  3
ACAD_MLINESTYLE
350
17
  3
ACAD_PLOTSETTINGS
350
19
  3
ACAD_PLOTSTYLENAME
350
E
  3
ACAD_TABLESTYLE
350
F1
  3
ACAD_VISUALSTYLE
350
2A
  0
DICTIONARY
  5
D
102
{ACAD_REACTORS
330
C
102
}
330
C
100
AcDbDictionary
281
     1
  0
DICTIONARY
  5
1A
102
{ACAD_REACTORS
330
C
102
}
330
C
100
AcDbDictionary
281
     1
  3
Layout1
350
1E
  3
Layout2
350
26
  3
Model
350
22
  0
DICTIONARY
  5
17
102
{ACAD_REACTORS
330
C
102
}
330
C
100
AcDbDictionary
281
     1
  3
Standard
350
18
  0
DICTIONARY
  5
19
102
{ACAD_REACTORS
330
C
102
}
330
C
100
AcDbDictionary
281
     1
  0
ACDBDICTIONARYWDFLT
  5
E
102
{ACAD_REACTORS
330
C
102
}
330
C
100
AcDbDictionary
281
     1
  3
Normal
350
F
100
AcDbDictionaryWithDefault
340
F
  0
DICTIONARY
  5
F1
102
{ACAD_REACTORS
330
C
102
}
330
C
100
AcDbDictionary
281
     1
  0
DICTIONARY
  5
2A
102
{ACAD_REACTORS
330
C
102
}
330
C
100
AcDbDictionary
281
     1
  3
2dWireframe
350
2F
  3
3D Hidden
350
31
  3
3dWireframe
350
30
  3
Basic
350
32
  3
Brighten
350
36
  3
ColorChange
350
3A
  3
Conceptual
350
34
  3
Dim
350
35
  3
Facepattern
350
39
  3
Flat
350
2B
  3
FlatWithEdges
350
2C
  3
Gouraud
350
2D
  3
GouraudWithEdges
350
2E
  3
Linepattern
350
38
  3
Realistic
350
33
  3
Thicken
350
37
  0
LAYOUT
  5
1E
102
{ACAD_REACTORS
330
1A
102
}
330
1A
100
AcDbPlotSettings
  1

  2
none_device
  4

  6

 40
0.0
 41
0.0
 42
0.0
 43
0.0
 44
0.0
 45
0.0
 46
0.0
 47
0.0
 48
0.0
 49
0.0
140
0.0
141
0.0
142
1.0
143
1.0
 70
   688
 72
     0
 73
     0
 74
     5
  7

 75
    16
 76
     0
 77
     2
 78
   300
147
1.0
148
0.0
149
0.0
100
AcDbLayout
  1
Layout1
 70
     1
 71
     1
 10
0.0
 20
0.0
 11
12.0
 21
9.0
 12
0.0
 22
0.0
 32
0.0
 14
1.000000000000000E+20
 24
1.000000000000000E+20
 34
1.000000000000000E+20
 15
-1.000000000000000E+20
 25
-1.000000000000000E+20
 35
-1.000000000000000E+20
146
0.0
 13
0.0
 23
0.0
 33
0.0
 16
1.0
 26
0.0
 36
0.0
 17
0.0
 27
1.0
 37
0.0
 76
     0
330
1B
  0
LAYOUT
  5
26
102
{ACAD_REACTORS
330
1A
102
}
330
1A
100
AcDbPlotSettings
  1

  2
none_device
  4

  6

 40
0.0
 41
0.0
 42
0.0
 43
0.0
 44
0.0
 45
0.0
 46
0.0
 47
0.0
 48
0.0
 49
0.0
140
0.0
141
0.0
142
1.0
143
1.0
 70
   688
 72
     0
 73
     0
 74
     5
  7

 75
    16
 76
     0
 77
     2
 78
   300
147
1.0
148
0.0
149
0.0
100
AcDbLayout
  1
Layout2
 70
     1
 71
     2
 10
0.0
 20
0.0
 11
0.0
 21
0.0
 12
0.0
 22
0.0
 32
0.0
 14
0.0
 24
0.0
 34
0.0
 15
0.0
 25
0.0
 35
0.0
146
0.0
 13
0.0
 23
0.0
 33
0.0
 16
1.0
 26
0.0
 36
0.0
 17
0.0
 27
1.0
 37
0.0
 76
     0
330
23
  0
LAYOUT
  5
22
102
{ACAD_REACTORS
330
1A
102
}
330
1A
100
AcDbPlotSettings
  1

  2
none_device
  4

  6

 40
0.0
 41
0.0
 42
0.0
 43
0.0
 44
0.0
 45
0.0
 46
0.0
 47
0.0
 48
0.0
 49
0.0
140
0.0
141
0.0
142
1.0
143
1.0
 70
  1712
 72
     0
 73
     0
 74
     0
  7

 75
     0
 76
     0
 77
     2
 78
   300
147
1.0
148
0.0
149
0.0
100
AcDbLayout
  1
Model
 70
     1
 71
     0
 10
0.0
 20
0.0
 11
12.0
 21
9.0
 12
0.0
 22
0.0
 32
0.0
 14
1.000000000000000E+20
 24
1.000000000000000E+20
 34
1.000000000000000E+20
 15
-1.000000000000000E+20
 25
-1.000000000000000E+20
 35
-1.000000000000000E+20
146
0.0
 13
0.0
 23
0.0
 33
0.0
 16
1.0
 26
0.0
 36
0.0
 17
0.0
 27
1.0
 37
0.0
 76
     0
330
1F
331
29
  0
MLINESTYLE
  5
18
102
{ACAD_REACTORS
330
17
102
}
330
17
100
AcDbMlineStyle
  2
Standard
 70
     0
  3

 62
   256
 51
90.0
 52
90.0
 71
     2
 49
0.5
 62
   256
  6
BYLAYER
 49
-0.5
 62
   256
  6
BYLAYER
  0
ACDBPLACEHOLDER
  5
F
102
{ACAD_REACTORS
330
E
102
}
330
E
  0
VISUALSTYLE
  5
2F
102
{ACAD_REACTORS
330
2A
102
}
330
2A
100
AcDbVisualStyle
  2
2dWireframe
 70
     4
 71
     0
 72
     2
 73
     0
 90
        0
 40
-0.6
 41
-30.0
 62
     5
 63
     7
421
 16777215
 74
     1
 91
        4
 64
     7
 65
   257
 75
     1
175
     1
 42
1.0
 92
        0
 66
   257
 43
1.0
 76
     1
 77
     6
 78
     2
 67
     7
 79
     5
170
     0
171
     0
290
     0
174
     0
 93
        1
 44
0.0
173
     0
291
     0
 45
0.0
1001
ACAD
1000
AcDbSavedByObjectVersion
1070
     0
  0
VISUALSTYLE
  5
31
102
{ACAD_REACTORS
330
2A
102
}
330
2A
100
AcDbVisualStyle
  2
3D Hidden
 70
     6
 71
     1
 72
     2
 73
     2
 90
        0
 40
-0.6
 41
-30.0
 62
     5
 63
     7
421
 16777215
 74
     2
 91
        2
 64
     7
 65
   257
 75
     2
175
     1
 42
40.0
 92
        0
 66
   257
 43
1.0
 76
     1
 77
     6
 78
     2
 67
     7
 79
     3
170
     0
171
     0
290
     0
174
     0
 93
        1
 44
0.0
173
     0
291
     0
 45
0.0
1001
ACAD
1000
AcDbSavedByObjectVersion
1070
     0
  0
VISUALSTYLE
  5
30
102
{ACAD_REACTORS
330
2A
102
}
330
2A
100
AcDbVisualStyle
  2
3dWireframe
 70
     5
 71
     0
 72
     2
 73
     0
 90
        0
 40
-0.6
 41
-30.0
 62
     5
 63
     7
421
 16777215
 74
     1
 91
        4
 64
     7
 65
   257
 75
     1
175
     1
 42
1.0
 92
        0
 66
   257
 43
1.0
 76
     1
 77
     6
 78
     2
 67
     7
 79
     5
170
     0
171
     0
290
     0
174
     0
 93
        1
 44
0.0
173
     0
291
     0
 45
0.0
1001
ACAD
1000
AcDbSavedByObjectVersion
1070
     0
  0
VISUALSTYLE
  5
32
102
{ACAD_REACTORS
330
2A
102
}
330
2A
100
AcDbVisualStyle
  2
Basic
 70
     7
 71
     1
 72
     0
 73
     1
 90
        0
 40
-0.6
 41
-30.0
 62
     5
 63
     7
421
 16777215
 74
     0
 91
        4
 64
     7
 65
   257
 75
     1
175
     1
 42
1.0
 92
        8
 66
     7
 43
1.0
 76
     1
 77
     6
 78
     2
 67
     7
 79
     5
170
     0
171
     0
290
     0
174
     0
 93
        1
 44
0.0
173
     0
291
     1
 45
0.0
1001
ACAD
1000
AcDbSavedByObjectVersion
1070
     0
  0
VISUALSTYLE
  5
36
102
{ACAD_REACTORS
330
2A
102
}
330
2A
100
AcDbVisualStyle
  2
Brighten
 70
    12
 71
     2
 72
     2
 73
     0
 90
        0
 40
-0.6
 41
-30.0
 62
     5
 63
     7
421
 16777215
 74
     1
 91
        4
 64
     7
 65
   257
 75
     1
175
     1
 42
1.0
 92
        8
 66
     7
 43
1.0
 76
     1
 77
     6
 78
     2
 67
     7
 79
     5
170
     0
171
     0
290
     0
174
     0
 93
        1
 44
50.0
173
     0
291
     1
 45
0.0
1001
ACAD
1000
AcDbSavedByObjectVersion
1070
     0
  0
VISUALSTYLE
  5
3A
102
{ACAD_REACTORS
330
2A
102
}
330
2A
100
AcDbVisualStyle
  2
ColorChange
 70
    16
 71
     2
 72
     2
 73
     3
 90
        0
 40
-0.6
 41
-30.0
 62
     5
 63
     8
421
  8421504
 74
     1
 91
        4
 64
     7
 65
   257
 75
     1
175
     1
 42
1.0
 92
        8
 66
     8
424
  8421504
 43
1.0
 76
     1
 77
     6
 78
     2
 67
     7
 79
     5
170
     0
171
     0
290
     0
174
     0
 93
        1
 44
0.0
173
     0
291
     1
 45
0.0
1001
ACAD
1000
AcDbSavedByObjectVersion
1070
     0
  0
VISUALSTYLE
  5
34
102
{ACAD_REACTORS
330
2A
102
}
330
2A
100
AcDbVisualStyle
  2
Conceptual
 70
     9
 71
     3
 72
     2
 73
     0
 90
        0
 40
-0.6
 41
-30.0
 62
     5
 63
     7
421
 16777215
 74
     2
 91
        2
 64
     7
 65
   257
 75
     1
175
     1
 42
40.0
 92
        8
 66
     7
 43
1.0
 76
     1
 77
     6
 78
     2
 67
     7
 79
     3
170
     0
171
     0
290
     0
174
     0
 93
        1
 44
0.0
173
     0
291
     0
 45
0.0
1001
ACAD
1000
AcDbSavedByObjectVersion
1070
     0
  0
VISUALSTYLE
  5
35
102
{ACAD_REACTORS
330
2A
102
}
330
2A
100
AcDbVisualStyle
  2
Dim
 70
    11
 71
     2
 72
     2
 73
     0
 90
        0
 40
-0.6
 41
-30.0
 62
     5
 63
     7
421
 16777215
 74
     1
 91
        4
 64
     7
 65
   257
 75
     1
175
     1
 42
1.0
 92
        8
 66
     7
 43
1.0
 76
     1
 77
     6
 78
     2
 67
     7
 79
     5
170
     0
171
     0
290
     0
174
     0
 93
        1
 44
-50.0
173
     0
291
     1
 45
0.0
1001
ACAD
1000
AcDbSavedByObjectVersion
1070
     0
  0
VISUALSTYLE
  5
39
102
{ACAD_REACTORS
330
2A
102
}
330
2A
100
AcDbVisualStyle
  2
Facepattern
 70
    15
 71
     2
 72
     2
 73
     0
 90
        0
 40
-0.6
 41
-30.0
 62
     5
 63
     7
421
 16777215
 74
     1
 91
        4
 64
     7
 65
   257
 75
     1
175
     1
 42
1.0
 92
        8
 66
     7
 43
1.0
 76
     1
 77
     6
 78
     2
 67
     7
 79
     5
170
     0
171
     0
290
     0
174
     0
 93
        1
 44
0.0
173
     0
291
     1
 45
0.0
1001
ACAD
1000
AcDbSavedByObjectVersion
1070
     0
  0
VISUALSTYLE
  5
2B
102
{ACAD_REACTORS
330
2A
102
}
330
2A
100
AcDbVisualStyle
  2
Flat
 70
     0
 71
     2
 72
     1
 73
     1
 90
        2
 40
-0.6
 41
30.0
 62
     5
 63
     7
421
 16777215
 74
     0
 91
        4
 64
     7
 65
   257
 75
     1
175
     1
 42
1.0
 92
        8
 66
     7
 43
1.0
 76
     1
 77
     6
 78
     2
 67
     7
 79
     5
170
     0
171
     0
290
     0
174
     0
 93
       13
 44
0.0
173
     0
291
     1
 45
0.0
1001
ACAD
1000
AcDbSavedByObjectVersion
1070
     0
  0
VISUALSTYLE
  5
2C
102
{ACAD_REACTORS
330
2A
102
}
330
2A
100
AcDbVisualStyle
  2
FlatWithEdges
 70
     1
 71
     2
 72
     1
 73
     1
 90
        2
 40
-0.6
 41
30.0
 62
     5
 63
     7
421
 16777215
 74
     1
 91
        4
 64
     7
 65
   257
 75
     1
175
     1
 42
1.0
 92
        0
 66
   257
 43
1.0
 76
     1
 77
     6
 78
     2
 67
     7
 79
     5
170
     0
171
     0
290
     0
174
     0
 93
       13
 44
0.0
173
     0
291
     1
 45
0.0
1001
ACAD
1000
AcDbSavedByObjectVersion
1070
     0
  0
VISUALSTYLE
  5
2D
102
{ACAD_REACTORS
330
2A
102
}
330
2A
100
AcDbVisualStyle
  2
Gouraud
 70
     2
 71
     2
 72
     2
 73
     1
 90
        2
 40
-0.6
 41
30.0
 62
     5
 63
     7
421
 16777215
 74
     0
 91
        4
 64
     7
 65
   257
 75
     1
175
     1
 42
1.0
 92
        0
 66
     7
 43
1.0
 76
     1
 77
     6
 78
     2
 67
     7
 79
     5
170
     0
171
     0
290
     0
174
     0
 93
       13
 44
0.0
173
     0
291
     1
 45
0.0
1001
ACAD
1000
AcDbSavedByObjectVersion
1070
     0
  0
VISUALSTYLE
  5
2E
102
{ACAD_REACTORS
330
2A
102
}
330
2A
100
AcDbVisualStyle
  2
GouraudWithEdges
 70
     3
 71
     2
 72
     2
 73
     1
 90
        2
 40
-0.6
 41
30.0
 62
     5
 63
     7
421
 16777215
 74
     1
 91
        4
 64
     7
 65
   257
 75
     1
175
     1
 42
1.0
 92
        0
 66
   257
 43
1.0
 76
     1
 77
     6
 78
     2
 67
     7
 79
     5
170
     0
171
     0
290
     0
174
     0
 93
       13
 44
0.0
173
     0
291
     1
 45
0.0
1001
ACAD
1000
AcDbSavedByObjectVersion
1070
     0
  0
VISUALSTYLE
  5
38
102
{ACAD_REACTORS
330
2A
102
}
330
2A
100
AcDbVisualStyle
  2
Linepattern
 70
    14
 71
     2
 72
     2
 73
     0
 90
        0
 40
-0.6
 41
-30.0
 62
     5
 63
     7
421
 16777215
 74
     1
 91
        4
 64
     7
 65
   257
 75
     7
175
     7
 42
1.0
 92
        8
 66
     7
 43
1.0
 76
     1
 77
     6
 78
     2
 67
     7
 79
     5
170
     0
171
     0
290
     0
174
     0
 93
        1
 44
0.0
173
     0
291
     1
 45
0.0
1001
ACAD
1000
AcDbSavedByObjectVersion
1070
     0
  0
VISUALSTYLE
  5
33
102
{ACAD_REACTORS
330
2A
102
}
330
2A
100
AcDbVisualStyle
  2
Realistic
 70
     8
 71
     2
 72
     2
 73
     0
 90
        0
 40
-0.6
 41
-30.0
 62
     5
 63
     7
421
 16777215
 74
     1
 91
        0
 64
     7
 65
   257
 75
     1
175
     1
 42
1.0
 92
        8
 66
     8
424
  7895160
 43
1.0
 76
     1
 77
     6
 78
     2
 67
     7
 79
     5
170
     0
171
     0
290
     0
174
     0
 93
       13
 44
0.0
173
     0
291
     0
 45
0.0
1001
ACAD
1000
AcDbSavedByObjectVersion
1070
     0
  0
VISUALSTYLE
  5
37
102
{ACAD_REACTORS
330
2A
102
}
330
2A
100
AcDbVisualStyle
  2
Thicken
 70
    13
 71
     2
 72
     2
 73
     0
 90
        0
 40
-0.6
 41
-30.0
 62
     5
 63
     7
421
 16777215
 74
     1
 91
        4
 64
     7
 65
   257
 75
     1
175
     1
 42
1.0
 92
       12
 66
     7
 43
1.0
 76
     1
 77
     6
 78
     2
 67
     7
 79
     5
170
     0
171
     0
290
     0
174
     0
 93
        1
 44
0.0
173
     0
291
     1
 45
0.0
1001
ACAD
1000
AcDbSavedByObjectVersion
1070
     0
  0
ENDSEC
  0
EOF
